<?xml version="1.0" encoding="UTF-8" standalone="no"?>
<!-- Created with Inkscape (http://www.inkscape.org/) -->

<svg
   width="80mm"
   height="80mm"
   viewBox="0 0 80 80"
   version="1.1"
   id="svg1"
   inkscape:version="1.3 (1:1.3+202307231459+0e150ed6c4)"
   sodipodi:docname="drawing_04.svg"
   xmlns:inkscape="http://www.inkscape.org/namespaces/inkscape"
   xmlns:sodipodi="http://sodipodi.sourceforge.net/DTD/sodipodi-0.dtd"
   xmlns="http://www.w3.org/2000/svg"
   xmlns:svg="http://www.w3.org/2000/svg">
  <sodipodi:namedview
     id="namedview1"
     pagecolor="#ffffff"
     bordercolor="#000000"
     borderopacity="0.25"
     inkscape:showpageshadow="2"
     inkscape:pageopacity="0.0"
     inkscape:pagecheckerboard="0"
     inkscape:deskcolor="#d1d1d1"
     inkscape:document-units="mm"
     inkscape:zoom="1.4142136"
     inkscape:cx="10.960155"
     inkscape:cy="321.73359"
     inkscape:window-width="2560"
     inkscape:window-height="1376"
     inkscape:window-x="0"
     inkscape:window-y="0"
     inkscape:window-maximized="1"
     inkscape:current-layer="layer1" />
  <defs
     id="defs1" />
  <g
     inkscape:label="Layer 1"
     inkscape:groupmode="layer"
     id="layer1"
     transform="translate(-110.02945,-107.45077)">
    <path
       id="path69"
       style="fill:none;stroke:#000000;stroke-width:0.1;stroke-linecap:round;stroke-linejoin:round"
       d="m 145.84817,134.23423 c 3.24458,0 6.21419,1.17735 8.48538,3.11473 2.38808,-2.88003 5.99896,-4.70221 10.03543,-4.70221 7.24858,0 13.12471,5.87613 13.12471,13.12471 0,1.56145 -0.27267,3.05921 -0.7651,4.43216 2.46206,0.80734 4.23019,3.12586 4.23019,5.85734 0,3.42077 -2.77308,6.19385 -6.19385,6.19384 h -46.2563 c -5.19618,0 -9.40851,-4.21234 -9.40851,-9.40852 0,-5.19618 4.21233,-9.40851 9.40851,-9.40851 1.62743,0 3.15836,0.4132 4.49835,1.15644 1.2682,-5.91295 6.53537,-10.35998 12.84119,-10.35998 z"
       sodipodi:nodetypes="scsscsccsscs" />
    <g
       id="g276" />
    <g
       id="g278"
       transform="rotate(90,150.02319,417.32394)" />
    <g
       id="g280"
       transform="rotate(180,150.02718,417.32167)" />
    <g
       id="g282"
       transform="rotate(-90,150.03116,417.31939)" />
  </g>
</svg>
