<?xml version="1.0" encoding="UTF-8" standalone="no"?>
<!-- Created with Inkscape (http://www.inkscape.org/) -->

<svg
   width="80mm"
   height="80mm"
   viewBox="0 0 80 80"
   version="1.1"
   id="svg1"
   inkscape:version="1.3 (1:1.3+202307231459+0e150ed6c4)"
   sodipodi:docname="drawing_18.svg"
   xml:space="preserve"
   xmlns:inkscape="http://www.inkscape.org/namespaces/inkscape"
   xmlns:sodipodi="http://sodipodi.sourceforge.net/DTD/sodipodi-0.dtd"
   xmlns="http://www.w3.org/2000/svg"
   xmlns:svg="http://www.w3.org/2000/svg"><sodipodi:namedview
     id="namedview1"
     pagecolor="#ffffff"
     bordercolor="#000000"
     borderopacity="0.25"
     inkscape:showpageshadow="2"
     inkscape:pageopacity="0.0"
     inkscape:pagecheckerboard="0"
     inkscape:deskcolor="#d1d1d1"
     inkscape:document-units="mm"
     inkscape:zoom="2.8284271"
     inkscape:cx="150.79052"
     inkscape:cy="202.93965"
     inkscape:window-width="2560"
     inkscape:window-height="1376"
     inkscape:window-x="0"
     inkscape:window-y="0"
     inkscape:window-maximized="1"
     inkscape:current-layer="layer1" /><defs
     id="defs1" /><g
     inkscape:label="Layer 1"
     inkscape:groupmode="layer"
     id="layer1"
     transform="translate(-110.02945,-17.49243)"><g
       id="g276" /><g
       id="g278"
       transform="rotate(90,150.02319,417.32394)" /><g
       id="g280"
       transform="rotate(180,150.02718,417.32167)" /><g
       id="g282"
       transform="rotate(-90,150.03116,417.31939)" /><path
       id="path15"
       style="fill:none;stroke:#000000;stroke-width:0.1;stroke-linecap:round;stroke-linejoin:round;stroke-dasharray:none"
       d="m 140.97666,91.25816 c -14.91369,-3.988364 -25.89677,-17.594429 -25.89677,-33.76573 0,-16.17222 10.98433,-29.778912 25.89931,-33.76641 2.88657,-0.771719 5.92036,-1.183145 9.05025,-1.183145 3.12866,0 6.16131,0.411104 9.04686,1.182239 14.91671,3.986343 25.9027,17.593872 25.9027,33.767316 0,16.173242 -10.98572,29.780632 -25.90214,33.767165"
       sodipodi:nodetypes="csssssc" /><path
       id="path25"
       style="fill:none;stroke:#000000;stroke-width:0.1;stroke-linecap:round;stroke-linejoin:round;stroke-dasharray:none"
       d="m 159.07467,91.249643 -0.64485,-2.405794 c 13.85205,-3.697623 24.0532,-16.333217 24.0532,-31.351419 0,-15.018389 -10.20141,-27.654113 -24.05357,-31.351084 l -0.6466,2.413308 c 12.78706,3.410903 22.20374,15.074648 22.20374,28.937776 0,13.862956 -9.41644,25.526581 -22.20323,28.938727 l -0.64596,-2.410798 c 11.72102,-3.128563 20.35276,-13.820219 20.35276,-26.527929 0,-12.707866 -8.63196,-23.399633 -20.35257,-26.529487 l -0.64581,2.410316 c 10.65472,2.846777 18.50195,12.566566 18.50195,24.119171 0,11.552464 -7.84703,21.272151 -18.50264,24.115836 l -0.64707,-2.414975 c 9.59095,-2.555925 16.65328,-11.303643 16.65328,-21.700861 0,-10.397344 -7.06251,-19.145155 -16.6518,-21.707088 l -0.64617,2.411721 c 8.52376,2.277451 14.80154,10.053283 14.80154,19.295367 0,9.241972 -6.27762,17.017721 -14.80105,19.296625 l -0.64657,-2.413156 c 7.45828,-1.992963 12.9512,-8.796744 12.9512,-16.883469 0,-8.086824 -5.49306,-14.890677 -12.95123,-16.883922 l -0.64636,2.412376 c 6.39283,1.70811 11.10116,7.539984 11.10116,14.471547 0,6.931478 -4.70821,12.76329 -11.10223,14.46708 l -0.64526,-2.408196 c 5.32756,-1.42281 9.25106,-6.282653 9.25106,-12.058885 0,-5.776302 -3.9236,-10.636198 -9.25072,-12.060547 l -0.64674,2.413845 c 4.26216,1.137743 7.40104,5.025661 7.40104,9.646702 0,4.620986 -3.1388,8.508861 -7.40081,9.647265 l -0.64632,-2.412132 c 3.19659,-0.853488 5.55069,-3.769394 5.55069,-7.235134 0,-3.465781 -2.35416,-6.381719 -5.55027,-7.236916 l -0.64694,2.414579 c 2.13134,0.567858 3.70079,2.511817 3.70079,4.822338 0,2.310493 -1.56941,4.254431 -3.7006,4.822918 l -0.64459,-2.405738 c 1.06405,-0.289968 1.84876,-1.261937 1.84876,-2.417183 v 6e-6 c 0,-1.155261 -0.78473,-2.12724 -1.85022,-2.411982 -0.20611,-0.05509 -0.42273,-0.08445 -0.64622,-0.08445 -0.22355,0 -0.44025,0.02939 -0.64644,0.08451 -1.06537,0.284826 -1.84998,1.256744 -1.84998,2.411918 0,1.155108 0.78452,2.126982 1.84907,2.415285 l -0.64529,2.407531 c -2.13118,-0.568851 -3.70022,-2.512598 -3.70022,-4.822815 0,-2.310347 1.56921,-4.254184 3.70056,-4.822273 l -0.64707,-2.414548 c -3.19611,0.855544 -5.54991,3.7713 -5.54991,7.23682 0,3.465325 2.35354,6.380947 5.55012,7.23498 l -0.6465,2.412081 c -4.26199,-1.139131 -7.40005,-5.026628 -7.40005,-9.64706 0,-4.620693 3.13841,-8.508368 7.40056,-9.646573 l -0.64687,-2.413812 c -5.3271,1.424925 -9.25011,6.284518 -9.25011,12.060385 0,5.775539 3.92257,10.63491 9.25011,12.058629 l -0.64546,2.408145 c -6.39399,-1.704882 -11.10108,-7.536127 -11.10108,-14.466773 0,-6.93104 4.70762,-12.762552 11.10043,-14.471353 l -0.64649,-2.412344 c -7.45815,1.994052 -12.95038,8.797483 -12.95038,16.883696 0,8.085754 5.49161,14.888874 12.94987,16.88311 l -0.64677,2.413105 c -8.52341,-2.280359 -14.79952,-10.055353 -14.79952,-19.296215 0,-9.241386 6.27682,-17.016736 14.80058,-19.295108 l -0.64631,-2.411688 c -9.58927,2.562967 -16.6507,11.310237 -16.6507,21.706796 0,10.395969 7.06063,19.142838 16.65156,21.7004 l -0.64727,2.414924 C 132.9103,78.762249 125.06516,69.043506 125.06516,57.49243 c 0,-11.551732 7.84603,-21.270921 18.50074,-24.118847 l -0.64592,-2.410284 c -11.72061,3.131118 -20.35125,13.822226 -20.35125,26.529131 0,12.706183 8.62966,23.3968 20.35066,26.527365 l -0.64615,2.410747 C 129.48649,83.016211 120.07231,71.353721 120.07231,57.49243 c 0,-13.862079 9.41525,-25.525106 22.20228,-28.937387 l -0.64672,-2.413276 c -13.85213,3.698465 -24.05199,16.333411 -24.05199,31.350663 0,15.016399 10.1987,27.650763 24.0507,31.350753 l -0.64236,2.40646"
       sodipodi:nodetypes="ccsccsccsccsccsccsccsccsccsccsccsccsccssssssccsccsccsccsccsccsccsccsccsccsccsccscc" /></g></svg>
