<?xml version="1.0" encoding="UTF-8" standalone="no"?>
<!-- Created with Inkscape (http://www.inkscape.org/) -->

<svg
   width="80mm"
   height="80mm"
   viewBox="0 0 80 80"
   version="1.1"
   id="svg1"
   inkscape:version="1.3 (1:1.3+202307231459+0e150ed6c4)"
   sodipodi:docname="drawing_05.svg"
   xmlns:inkscape="http://www.inkscape.org/namespaces/inkscape"
   xmlns:sodipodi="http://sodipodi.sourceforge.net/DTD/sodipodi-0.dtd"
   xmlns="http://www.w3.org/2000/svg"
   xmlns:svg="http://www.w3.org/2000/svg">
  <sodipodi:namedview
     id="namedview1"
     pagecolor="#ffffff"
     bordercolor="#000000"
     borderopacity="0.25"
     inkscape:showpageshadow="2"
     inkscape:pageopacity="0.0"
     inkscape:pagecheckerboard="0"
     inkscape:deskcolor="#d1d1d1"
     inkscape:document-units="mm"
     inkscape:zoom="0.35355339"
     inkscape:cx="-445.47727"
     inkscape:cy="791.9596"
     inkscape:window-width="2560"
     inkscape:window-height="1376"
     inkscape:window-x="0"
     inkscape:window-y="0"
     inkscape:window-maximized="1"
     inkscape:current-layer="layer1" />
  <defs
     id="defs1" />
  <g
     inkscape:label="Layer 1"
     inkscape:groupmode="layer"
     id="layer1"
     transform="translate(-14.779481,-197.40917)">
    <g
       id="g73"
       transform="translate(-0.82003529,3.8323859)">
      <path
         id="path72"
         style="fill:none;stroke:#000000;stroke-width:0.1;stroke-linecap:round;stroke-linejoin:round"
         d="m 64.054428,258.62403 c 14.125621,0 25.5767,-11.45108 25.5767,-25.5767 0,-14.12562 -11.451079,-25.5767 -25.5767,-25.5767 -8.086987,0 -15.29736,3.75323 -19.996198,9.63125 1.773064,-0.43281 3.6423,-0.67255 5.567529,-0.67255 12.533247,0 22.693449,10.1602 22.693453,22.69345 3e-6,8.21313 -4.363069,15.40721 -10.876618,19.38128 0.873128,0.0761 1.737356,0.11997 2.611834,0.11997 z"
         sodipodi:nodetypes="ssscsscs" />
      <path
         sodipodi:type="star"
         style="fill:none;stroke:#000000;stroke-width:0.1;stroke-linecap:round;stroke-linejoin:round;stroke-dasharray:none"
         id="path73"
         inkscape:flatsided="false"
         sodipodi:sides="5"
         sodipodi:cx="27.199888"
         sodipodi:cy="240.23392"
         sodipodi:r1="18.383945"
         sodipodi:r2="6.5315752"
         sodipodi:arg1="0.55312609"
         sodipodi:arg2="1.1631174"
         inkscape:rounded="0"
         inkscape:randomized="0"
         d="m 42.842537,249.89192 -13.053013,-3.66173 -6.941096,11.86526 -0.55109,-13.54569 -13.4294492,-2.93481 12.7124202,-4.70997 -1.358759,-13.67907 8.407798,10.63477 12.589689,-5.51932 -7.516115,11.28262 z"
         inkscape:transform-center-x="1.3472216"
         inkscape:transform-center-y="-1.3472243"
         transform="translate(12.700001,1.5875)" />
    </g>
    <g
       id="g276" />
    <g
       id="g278"
       transform="rotate(90,150.02319,417.32394)" />
    <g
       id="g280"
       transform="rotate(180,150.02718,417.32167)" />
    <g
       id="g282"
       transform="rotate(-90,150.03116,417.31939)" />
  </g>
</svg>
