<?xml version="1.0" encoding="UTF-8" standalone="no"?>
<!-- Created with Inkscape (http://www.inkscape.org/) -->

<svg
   width="80mm"
   height="80mm"
   viewBox="0 0 80 80"
   version="1.1"
   id="svg1"
   inkscape:version="1.3 (1:1.3+202307231459+0e150ed6c4)"
   sodipodi:docname="drawing_27.svg"
   xml:space="preserve"
   xmlns:inkscape="http://www.inkscape.org/namespaces/inkscape"
   xmlns:sodipodi="http://sodipodi.sourceforge.net/DTD/sodipodi-0.dtd"
   xmlns="http://www.w3.org/2000/svg"
   xmlns:svg="http://www.w3.org/2000/svg"><sodipodi:namedview
     id="namedview1"
     pagecolor="#ffffff"
     bordercolor="#000000"
     borderopacity="0.25"
     inkscape:showpageshadow="2"
     inkscape:pageopacity="0.0"
     inkscape:pagecheckerboard="0"
     inkscape:deskcolor="#d1d1d1"
     inkscape:document-units="mm"
     inkscape:zoom="2.8284271"
     inkscape:cx="83.615377"
     inkscape:cy="98.287843"
     inkscape:window-width="2560"
     inkscape:window-height="1376"
     inkscape:window-x="0"
     inkscape:window-y="0"
     inkscape:window-maximized="1"
     inkscape:current-layer="layer1" /><defs
     id="defs1" /><g
     inkscape:label="Layer 1"
     inkscape:groupmode="layer"
     id="layer1"
     transform="translate(-14.779481,-467.28383)"><g
       id="g276" /><g
       id="g278"
       transform="rotate(90,150.02319,417.32394)" /><g
       id="g280"
       transform="rotate(180,150.02718,417.32167)" /><g
       id="g282"
       transform="rotate(-90,150.03116,417.31939)" /><g
       id="g614"
       transform="translate(111.125,2.8966545e-5)"><path
         id="rect387"
         style="fill:none;stroke:#1a1a1a;stroke-width:0.1;stroke-linecap:round;stroke-linejoin:round"
         transform="rotate(45)"
         d="m 316.09753,442.57178 h 5.52797 v 5.52797 h -5.52797 z" /><path
         id="rect413"
         style="fill:none;stroke:#1a1a1a;stroke-width:0.1;stroke-linecap:round;stroke-linejoin:round"
         transform="rotate(45)"
         d="m 316.09753,348.99249 h 5.52797 v 5.52797 h -5.52797 z" /><path
         id="rect419"
         style="fill:none;stroke:#1a1a1a;stroke-width:0.1;stroke-linecap:round;stroke-linejoin:round"
         transform="rotate(45)"
         d="m 296.04483,382.41367 h 5.52797 v 5.52797 h -5.52797 z" /><path
         id="rect420"
         style="fill:none;stroke:#1a1a1a;stroke-width:0.1;stroke-linecap:round;stroke-linejoin:round"
         transform="rotate(45)"
         d="m 302.72906,382.41367 h 5.52797 v 5.52797 h -5.52797 z" /><path
         id="rect423"
         style="fill:none;stroke:#1a1a1a;stroke-width:0.1;stroke-linecap:round;stroke-linejoin:round"
         transform="rotate(45)"
         d="m 349.51871,382.41367 h 5.52797 v 5.52797 h -5.52797 z" /><path
         id="rect424"
         style="fill:none;stroke:#1a1a1a;stroke-width:0.1;stroke-linecap:round;stroke-linejoin:round"
         transform="rotate(45)"
         d="m 342.83447,382.41367 h 5.52797 v 5.52797 h -5.52797 z" /><path
         id="rect425"
         style="fill:none;stroke:#1a1a1a;stroke-width:0.1;stroke-linecap:round;stroke-linejoin:round"
         transform="rotate(45)"
         d="m 336.15024,382.41367 h 5.52797 v 5.52797 h -5.52797 z" /><path
         id="rect426"
         style="fill:none;stroke:#1a1a1a;stroke-width:0.1;stroke-linecap:round;stroke-linejoin:round"
         transform="rotate(45)"
         d="m 329.466,382.41367 h 5.52797 v 5.52797 H 329.466 Z" /><path
         id="rect427"
         style="fill:none;stroke:#1a1a1a;stroke-width:0.1;stroke-linecap:round;stroke-linejoin:round"
         transform="rotate(45)"
         d="m 322.78177,382.41367 h 5.52797 v 5.52797 h -5.52797 z" /><path
         id="rect428"
         style="fill:none;stroke:#1a1a1a;stroke-width:0.1;stroke-linecap:round;stroke-linejoin:round"
         transform="rotate(45)"
         d="m 316.09753,382.41367 h 5.52797 v 5.52797 h -5.52797 z" /><path
         id="rect429"
         style="fill:none;stroke:#1a1a1a;stroke-width:0.1;stroke-linecap:round;stroke-linejoin:round"
         transform="rotate(45)"
         d="m 309.4133,382.41367 h 5.52797 v 5.52797 h -5.52797 z" /><path
         id="rect431"
         style="fill:none;stroke:#1a1a1a;stroke-width:0.1;stroke-linecap:round;stroke-linejoin:round"
         transform="rotate(45)"
         d="m 289.3606,382.41367 h 5.52797 v 5.52797 h -5.52797 z" /><path
         id="rect432"
         style="fill:none;stroke:#1a1a1a;stroke-width:0.1;stroke-linecap:round;stroke-linejoin:round"
         transform="rotate(45)"
         d="m 282.67636,382.41367 h 5.52797 v 5.52797 h -5.52797 z" /><path
         id="rect434"
         style="fill:none;stroke:#1a1a1a;stroke-width:0.1;stroke-linecap:round;stroke-linejoin:round"
         transform="rotate(45)"
         d="m 296.04483,395.78214 h 5.52797 v 5.52796 h -5.52797 z" /><path
         id="rect435"
         style="fill:none;stroke:#1a1a1a;stroke-width:0.1;stroke-linecap:round;stroke-linejoin:round"
         transform="rotate(45)"
         d="m 302.72906,395.78214 h 5.52797 v 5.52796 h -5.52797 z" /><path
         id="rect436"
         style="fill:none;stroke:#1a1a1a;stroke-width:0.1;stroke-linecap:round;stroke-linejoin:round"
         transform="rotate(45)"
         d="m 362.88715,395.78214 h 5.52797 v 5.52796 h -5.52797 z" /><path
         id="rect437"
         style="fill:none;stroke:#1a1a1a;stroke-width:0.1;stroke-linecap:round;stroke-linejoin:round"
         transform="rotate(45)"
         d="m 356.20291,395.78214 h 5.52797 v 5.52796 h -5.52797 z" /><path
         id="rect438"
         style="fill:none;stroke:#1a1a1a;stroke-width:0.1;stroke-linecap:round;stroke-linejoin:round"
         transform="rotate(45)"
         d="m 349.51871,395.78214 h 5.52797 v 5.52796 h -5.52797 z" /><path
         id="rect439"
         style="fill:none;stroke:#1a1a1a;stroke-width:0.1;stroke-linecap:round;stroke-linejoin:round"
         transform="rotate(45)"
         d="m 342.83447,395.78214 h 5.52797 v 5.52796 h -5.52797 z" /><path
         id="rect440"
         style="fill:none;stroke:#1a1a1a;stroke-width:0.1;stroke-linecap:round;stroke-linejoin:round"
         transform="rotate(45)"
         d="m 336.15024,395.78214 h 5.52797 v 5.52796 h -5.52797 z" /><path
         id="rect441"
         style="fill:none;stroke:#1a1a1a;stroke-width:0.1;stroke-linecap:round;stroke-linejoin:round"
         transform="rotate(45)"
         d="m 329.466,395.78214 h 5.52797 v 5.52796 H 329.466 Z" /><path
         id="rect442"
         style="fill:none;stroke:#1a1a1a;stroke-width:0.1;stroke-linecap:round;stroke-linejoin:round"
         transform="rotate(45)"
         d="m 322.78177,395.78214 h 5.52797 v 5.52796 h -5.52797 z" /><path
         id="rect443"
         style="fill:none;stroke:#1a1a1a;stroke-width:0.1;stroke-linecap:round;stroke-linejoin:round"
         transform="rotate(45)"
         d="m 316.09753,395.78214 h 5.52797 v 5.52796 h -5.52797 z" /><path
         id="rect444"
         style="fill:none;stroke:#1a1a1a;stroke-width:0.1;stroke-linecap:round;stroke-linejoin:round"
         transform="rotate(45)"
         d="m 309.4133,395.78214 h 5.52797 v 5.52796 h -5.52797 z" /><path
         id="rect445"
         style="fill:none;stroke:#1a1a1a;stroke-width:0.1;stroke-linecap:round;stroke-linejoin:round"
         transform="rotate(45)"
         d="m 269.30789,395.78214 h 5.52797 v 5.52796 h -5.52797 z" /><path
         id="rect446"
         style="fill:none;stroke:#1a1a1a;stroke-width:0.1;stroke-linecap:round;stroke-linejoin:round"
         transform="rotate(45)"
         d="m 289.3606,395.78214 h 5.52797 v 5.52796 h -5.52797 z" /><path
         id="rect447"
         style="fill:none;stroke:#1a1a1a;stroke-width:0.1;stroke-linecap:round;stroke-linejoin:round"
         transform="rotate(45)"
         d="m 282.67636,395.78214 h 5.52797 v 5.52796 h -5.52797 z" /><path
         id="rect448"
         style="fill:none;stroke:#1a1a1a;stroke-width:0.1;stroke-linecap:round;stroke-linejoin:round"
         transform="rotate(45)"
         d="m 275.99213,395.78214 h 5.52797 v 5.52796 h -5.52797 z" /><path
         id="rect449"
         style="fill:none;stroke:#1a1a1a;stroke-width:0.1;stroke-linecap:round;stroke-linejoin:round"
         transform="rotate(45)"
         d="m 296.04483,402.46637 h 5.52797 v 5.52797 h -5.52797 z" /><path
         id="rect450"
         style="fill:none;stroke:#1a1a1a;stroke-width:0.1;stroke-linecap:round;stroke-linejoin:round"
         transform="rotate(45)"
         d="m 302.72906,402.46637 h 5.52797 v 5.52797 h -5.52797 z" /><path
         id="rect452"
         style="fill:none;stroke:#1a1a1a;stroke-width:0.1;stroke-linecap:round;stroke-linejoin:round"
         transform="rotate(45)"
         d="m 356.20291,402.46637 h 5.52797 v 5.52797 h -5.52797 z" /><path
         id="rect453"
         style="fill:none;stroke:#1a1a1a;stroke-width:0.1;stroke-linecap:round;stroke-linejoin:round"
         transform="rotate(45)"
         d="m 349.51871,402.46637 h 5.52797 v 5.52797 h -5.52797 z" /><path
         id="rect454"
         style="fill:none;stroke:#1a1a1a;stroke-width:0.1;stroke-linecap:round;stroke-linejoin:round"
         transform="rotate(45)"
         d="m 342.83447,402.46637 h 5.52797 v 5.52797 h -5.52797 z" /><path
         id="rect455"
         style="fill:none;stroke:#1a1a1a;stroke-width:0.1;stroke-linecap:round;stroke-linejoin:round"
         transform="rotate(45)"
         d="m 336.15024,402.46637 h 5.52797 v 5.52797 h -5.52797 z" /><path
         id="rect456"
         style="fill:none;stroke:#1a1a1a;stroke-width:0.1;stroke-linecap:round;stroke-linejoin:round"
         transform="rotate(45)"
         d="m 329.466,402.46637 h 5.52797 v 5.52797 H 329.466 Z" /><path
         id="rect457"
         style="fill:none;stroke:#1a1a1a;stroke-width:0.1;stroke-linecap:round;stroke-linejoin:round"
         transform="rotate(45)"
         d="m 322.78177,402.46637 h 5.52797 v 5.52797 h -5.52797 z" /><path
         id="rect458"
         style="fill:none;stroke:#1a1a1a;stroke-width:0.1;stroke-linecap:round;stroke-linejoin:round"
         transform="rotate(45)"
         d="m 316.09753,402.46637 h 5.52797 v 5.52797 h -5.52797 z" /><path
         id="rect459"
         style="fill:none;stroke:#1a1a1a;stroke-width:0.1;stroke-linecap:round;stroke-linejoin:round"
         transform="rotate(45)"
         d="m 309.4133,402.46637 h 5.52797 v 5.52797 h -5.52797 z" /><path
         id="rect461"
         style="fill:none;stroke:#1a1a1a;stroke-width:0.1;stroke-linecap:round;stroke-linejoin:round"
         transform="rotate(45)"
         d="m 289.3606,402.46637 h 5.52797 v 5.52797 h -5.52797 z" /><path
         id="rect462"
         style="fill:none;stroke:#1a1a1a;stroke-width:0.1;stroke-linecap:round;stroke-linejoin:round"
         transform="rotate(45)"
         d="m 282.67636,402.46637 h 5.52797 v 5.52797 h -5.52797 z" /><path
         id="rect463"
         style="fill:none;stroke:#1a1a1a;stroke-width:0.1;stroke-linecap:round;stroke-linejoin:round"
         transform="rotate(45)"
         d="m 275.99213,402.46637 h 5.52797 v 5.52797 h -5.52797 z" /><path
         id="rect464"
         style="fill:none;stroke:#1a1a1a;stroke-width:0.1;stroke-linecap:round;stroke-linejoin:round"
         transform="rotate(45)"
         d="m 296.04483,409.15057 h 5.52797 v 5.52797 h -5.52797 z" /><path
         id="rect465"
         style="fill:none;stroke:#1a1a1a;stroke-width:0.1;stroke-linecap:round;stroke-linejoin:round"
         transform="rotate(45)"
         d="m 302.72906,409.15057 h 5.52797 v 5.52797 h -5.52797 z" /><path
         id="rect468"
         style="fill:none;stroke:#1a1a1a;stroke-width:0.1;stroke-linecap:round;stroke-linejoin:round"
         transform="rotate(45)"
         d="m 349.51871,409.15057 h 5.52797 v 5.52797 h -5.52797 z" /><path
         id="rect469"
         style="fill:none;stroke:#1a1a1a;stroke-width:0.1;stroke-linecap:round;stroke-linejoin:round"
         transform="rotate(45)"
         d="m 342.83447,409.15057 h 5.52797 v 5.52797 h -5.52797 z" /><path
         id="rect470"
         style="fill:none;stroke:#1a1a1a;stroke-width:0.1;stroke-linecap:round;stroke-linejoin:round"
         transform="rotate(45)"
         d="m 336.15024,409.15057 h 5.52797 v 5.52797 h -5.52797 z" /><path
         id="rect471"
         style="fill:none;stroke:#1a1a1a;stroke-width:0.1;stroke-linecap:round;stroke-linejoin:round"
         transform="rotate(45)"
         d="m 329.466,409.15057 h 5.52797 v 5.52797 H 329.466 Z" /><path
         id="rect472"
         style="fill:none;stroke:#1a1a1a;stroke-width:0.1;stroke-linecap:round;stroke-linejoin:round"
         transform="rotate(45)"
         d="m 322.78177,409.15057 h 5.52797 v 5.52797 h -5.52797 z" /><path
         id="rect473"
         style="fill:none;stroke:#1a1a1a;stroke-width:0.1;stroke-linecap:round;stroke-linejoin:round"
         transform="rotate(45)"
         d="m 316.09753,409.15057 h 5.52797 v 5.52797 h -5.52797 z" /><path
         id="rect474"
         style="fill:none;stroke:#1a1a1a;stroke-width:0.1;stroke-linecap:round;stroke-linejoin:round"
         transform="rotate(45)"
         d="m 309.4133,409.15057 h 5.52797 v 5.52797 h -5.52797 z" /><path
         id="rect476"
         style="fill:none;stroke:#1a1a1a;stroke-width:0.1;stroke-linecap:round;stroke-linejoin:round"
         transform="rotate(45)"
         d="m 289.3606,409.15057 h 5.52797 v 5.52797 h -5.52797 z" /><path
         id="rect477"
         style="fill:none;stroke:#1a1a1a;stroke-width:0.1;stroke-linecap:round;stroke-linejoin:round"
         transform="rotate(45)"
         d="m 282.67636,409.15057 h 5.52797 v 5.52797 h -5.52797 z" /><path
         id="rect479"
         style="fill:none;stroke:#1a1a1a;stroke-width:0.1;stroke-linecap:round;stroke-linejoin:round"
         transform="rotate(45)"
         d="m 296.04483,415.83484 h 5.52797 v 5.52797 h -5.52797 z" /><path
         id="rect480"
         style="fill:none;stroke:#1a1a1a;stroke-width:0.1;stroke-linecap:round;stroke-linejoin:round"
         transform="rotate(45)"
         d="m 302.72906,415.83484 h 5.52797 v 5.52797 h -5.52797 z" /><path
         id="rect484"
         style="fill:none;stroke:#1a1a1a;stroke-width:0.1;stroke-linecap:round;stroke-linejoin:round"
         transform="rotate(45)"
         d="m 342.83447,415.83484 h 5.52797 v 5.52797 h -5.52797 z" /><path
         id="rect485"
         style="fill:none;stroke:#1a1a1a;stroke-width:0.1;stroke-linecap:round;stroke-linejoin:round"
         transform="rotate(45)"
         d="m 336.15024,415.83484 h 5.52797 v 5.52797 h -5.52797 z" /><path
         id="rect486"
         style="fill:none;stroke:#1a1a1a;stroke-width:0.1;stroke-linecap:round;stroke-linejoin:round"
         transform="rotate(45)"
         d="m 329.466,415.83484 h 5.52797 v 5.52797 H 329.466 Z" /><path
         id="rect487"
         style="fill:none;stroke:#1a1a1a;stroke-width:0.1;stroke-linecap:round;stroke-linejoin:round"
         transform="rotate(45)"
         d="m 322.78177,415.83484 h 5.52797 v 5.52797 h -5.52797 z" /><path
         id="rect488"
         style="fill:none;stroke:#1a1a1a;stroke-width:0.1;stroke-linecap:round;stroke-linejoin:round"
         transform="rotate(45)"
         d="m 316.09753,415.83484 h 5.52797 v 5.52797 h -5.52797 z" /><path
         id="rect489"
         style="fill:none;stroke:#1a1a1a;stroke-width:0.1;stroke-linecap:round;stroke-linejoin:round"
         transform="rotate(45)"
         d="m 309.4133,415.83484 h 5.52797 v 5.52797 h -5.52797 z" /><path
         id="rect491"
         style="fill:none;stroke:#1a1a1a;stroke-width:0.1;stroke-linecap:round;stroke-linejoin:round"
         transform="rotate(45)"
         d="m 289.3606,415.83484 h 5.52797 v 5.52797 h -5.52797 z" /><path
         id="rect494"
         style="fill:none;stroke:#1a1a1a;stroke-width:0.1;stroke-linecap:round;stroke-linejoin:round"
         transform="rotate(45)"
         d="m 296.04483,422.51904 h 5.52797 v 5.52797 h -5.52797 z" /><path
         id="rect495"
         style="fill:none;stroke:#1a1a1a;stroke-width:0.1;stroke-linecap:round;stroke-linejoin:round"
         transform="rotate(45)"
         d="m 302.72906,422.51904 h 5.52797 v 5.52797 h -5.52797 z" /><path
         id="rect500"
         style="fill:none;stroke:#1a1a1a;stroke-width:0.1;stroke-linecap:round;stroke-linejoin:round"
         transform="rotate(45)"
         d="m 336.15024,422.51904 h 5.52797 v 5.52797 h -5.52797 z" /><path
         id="rect501"
         style="fill:none;stroke:#1a1a1a;stroke-width:0.1;stroke-linecap:round;stroke-linejoin:round"
         transform="rotate(45)"
         d="m 329.466,422.51904 h 5.52797 v 5.52797 H 329.466 Z" /><path
         id="rect502"
         style="fill:none;stroke:#1a1a1a;stroke-width:0.1;stroke-linecap:round;stroke-linejoin:round"
         transform="rotate(45)"
         d="m 322.78177,422.51904 h 5.52797 v 5.52797 h -5.52797 z" /><path
         id="rect503"
         style="fill:none;stroke:#1a1a1a;stroke-width:0.1;stroke-linecap:round;stroke-linejoin:round"
         transform="rotate(45)"
         d="m 316.09753,422.51904 h 5.52797 v 5.52797 h -5.52797 z" /><path
         id="rect504"
         style="fill:none;stroke:#1a1a1a;stroke-width:0.1;stroke-linecap:round;stroke-linejoin:round"
         transform="rotate(45)"
         d="m 309.4133,422.51904 h 5.52797 v 5.52797 h -5.52797 z" /><path
         id="rect510"
         style="fill:none;stroke:#1a1a1a;stroke-width:0.1;stroke-linecap:round;stroke-linejoin:round"
         transform="rotate(45)"
         d="m 302.72906,429.20331 h 5.52797 v 5.52797 h -5.52797 z" /><path
         id="rect516"
         style="fill:none;stroke:#1a1a1a;stroke-width:0.1;stroke-linecap:round;stroke-linejoin:round"
         transform="rotate(45)"
         d="m 329.466,429.20331 h 5.52797 v 5.52797 H 329.466 Z" /><path
         id="rect517"
         style="fill:none;stroke:#1a1a1a;stroke-width:0.1;stroke-linecap:round;stroke-linejoin:round"
         transform="rotate(45)"
         d="m 322.78177,429.20331 h 5.52797 v 5.52797 h -5.52797 z" /><path
         id="rect518"
         style="fill:none;stroke:#1a1a1a;stroke-width:0.1;stroke-linecap:round;stroke-linejoin:round"
         transform="rotate(45)"
         d="m 316.09753,429.20331 h 5.52797 v 5.52797 h -5.52797 z" /><path
         id="rect519"
         style="fill:none;stroke:#1a1a1a;stroke-width:0.1;stroke-linecap:round;stroke-linejoin:round"
         transform="rotate(45)"
         d="m 309.4133,429.20331 h 5.52797 v 5.52797 h -5.52797 z" /><path
         id="rect532"
         style="fill:none;stroke:#1a1a1a;stroke-width:0.1;stroke-linecap:round;stroke-linejoin:round"
         transform="rotate(45)"
         d="m 322.78177,435.88751 h 5.52797 v 5.52797 h -5.52797 z" /><path
         id="rect533"
         style="fill:none;stroke:#1a1a1a;stroke-width:0.1;stroke-linecap:round;stroke-linejoin:round"
         transform="rotate(45)"
         d="m 316.09753,435.88751 h 5.52797 v 5.52797 h -5.52797 z" /><path
         id="rect534"
         style="fill:none;stroke:#1a1a1a;stroke-width:0.1;stroke-linecap:round;stroke-linejoin:round"
         transform="rotate(45)"
         d="m 309.4133,435.88751 h 5.52797 v 5.52797 h -5.52797 z" /><path
         id="rect539"
         style="fill:none;stroke:#1a1a1a;stroke-width:0.1;stroke-linecap:round;stroke-linejoin:round"
         transform="rotate(45)"
         d="m 296.04483,375.72943 h 5.52797 v 5.52797 h -5.52797 z" /><path
         id="rect540"
         style="fill:none;stroke:#1a1a1a;stroke-width:0.1;stroke-linecap:round;stroke-linejoin:round"
         transform="rotate(45)"
         d="m 302.72906,375.72943 h 5.52797 v 5.52797 h -5.52797 z" /><path
         id="rect544"
         style="fill:none;stroke:#1a1a1a;stroke-width:0.1;stroke-linecap:round;stroke-linejoin:round"
         transform="rotate(45)"
         d="m 342.83447,375.72943 h 5.52797 v 5.52797 h -5.52797 z" /><path
         id="rect545"
         style="fill:none;stroke:#1a1a1a;stroke-width:0.1;stroke-linecap:round;stroke-linejoin:round"
         transform="rotate(45)"
         d="m 336.15024,375.72943 h 5.52797 v 5.52797 h -5.52797 z" /><path
         id="rect546"
         style="fill:none;stroke:#1a1a1a;stroke-width:0.1;stroke-linecap:round;stroke-linejoin:round"
         transform="rotate(45)"
         d="m 329.466,375.72943 h 5.52797 v 5.52797 H 329.466 Z" /><path
         id="rect547"
         style="fill:none;stroke:#1a1a1a;stroke-width:0.1;stroke-linecap:round;stroke-linejoin:round"
         transform="rotate(45)"
         d="m 322.78177,375.72943 h 5.52797 v 5.52797 h -5.52797 z" /><path
         id="rect548"
         style="fill:none;stroke:#1a1a1a;stroke-width:0.1;stroke-linecap:round;stroke-linejoin:round"
         transform="rotate(45)"
         d="m 316.09753,375.72943 h 5.52797 v 5.52797 h -5.52797 z" /><path
         id="rect549"
         style="fill:none;stroke:#1a1a1a;stroke-width:0.1;stroke-linecap:round;stroke-linejoin:round"
         transform="rotate(45)"
         d="m 309.4133,375.72943 h 5.52797 v 5.52797 h -5.52797 z" /><path
         id="rect551"
         style="fill:none;stroke:#1a1a1a;stroke-width:0.1;stroke-linecap:round;stroke-linejoin:round"
         transform="rotate(45)"
         d="m 289.3606,375.72943 h 5.52797 v 5.52797 h -5.52797 z" /><path
         id="rect554"
         style="fill:none;stroke:#1a1a1a;stroke-width:0.1;stroke-linecap:round;stroke-linejoin:round"
         transform="rotate(45)"
         d="m 296.04483,389.0979 h 5.52797 v 5.52797 h -5.52797 z" /><path
         id="rect555"
         style="fill:none;stroke:#1a1a1a;stroke-width:0.1;stroke-linecap:round;stroke-linejoin:round"
         transform="rotate(45)"
         d="m 302.72906,389.0979 h 5.52797 v 5.52797 h -5.52797 z" /><path
         id="rect557"
         style="fill:none;stroke:#1a1a1a;stroke-width:0.1;stroke-linecap:round;stroke-linejoin:round"
         transform="rotate(45)"
         d="m 356.20291,389.0979 h 5.52797 v 5.52797 h -5.52797 z" /><path
         id="rect558"
         style="fill:none;stroke:#1a1a1a;stroke-width:0.1;stroke-linecap:round;stroke-linejoin:round"
         transform="rotate(45)"
         d="m 349.51871,389.0979 h 5.52797 v 5.52797 h -5.52797 z" /><path
         id="rect559"
         style="fill:none;stroke:#1a1a1a;stroke-width:0.1;stroke-linecap:round;stroke-linejoin:round"
         transform="rotate(45)"
         d="m 342.83447,389.0979 h 5.52797 v 5.52797 h -5.52797 z" /><path
         id="rect560"
         style="fill:none;stroke:#1a1a1a;stroke-width:0.1;stroke-linecap:round;stroke-linejoin:round"
         transform="rotate(45)"
         d="m 336.15024,389.0979 h 5.52797 v 5.52797 h -5.52797 z" /><path
         id="rect561"
         style="fill:none;stroke:#1a1a1a;stroke-width:0.1;stroke-linecap:round;stroke-linejoin:round"
         transform="rotate(45)"
         d="m 329.466,389.0979 h 5.52797 v 5.52797 H 329.466 Z" /><path
         id="rect562"
         style="fill:none;stroke:#1a1a1a;stroke-width:0.1;stroke-linecap:round;stroke-linejoin:round"
         transform="rotate(45)"
         d="m 322.78177,389.0979 h 5.52797 v 5.52797 h -5.52797 z" /><path
         id="rect563"
         style="fill:none;stroke:#1a1a1a;stroke-width:0.1;stroke-linecap:round;stroke-linejoin:round"
         transform="rotate(45)"
         d="m 316.09753,389.0979 h 5.52797 v 5.52797 h -5.52797 z" /><path
         id="rect564"
         style="fill:none;stroke:#1a1a1a;stroke-width:0.1;stroke-linecap:round;stroke-linejoin:round"
         transform="rotate(45)"
         d="m 309.4133,389.0979 h 5.52797 v 5.52797 h -5.52797 z" /><path
         id="rect566"
         style="fill:none;stroke:#1a1a1a;stroke-width:0.1;stroke-linecap:round;stroke-linejoin:round"
         transform="rotate(45)"
         d="m 289.3606,389.0979 h 5.52797 v 5.52797 h -5.52797 z" /><path
         id="rect567"
         style="fill:none;stroke:#1a1a1a;stroke-width:0.1;stroke-linecap:round;stroke-linejoin:round"
         transform="rotate(45)"
         d="m 282.67636,389.0979 h 5.52797 v 5.52797 h -5.52797 z" /><path
         id="rect568"
         style="fill:none;stroke:#1a1a1a;stroke-width:0.1;stroke-linecap:round;stroke-linejoin:round"
         transform="rotate(45)"
         d="m 275.99213,389.0979 h 5.52797 v 5.52797 h -5.52797 z" /><path
         id="rect569"
         style="fill:none;stroke:#1a1a1a;stroke-width:0.1;stroke-linecap:round;stroke-linejoin:round"
         transform="rotate(45)"
         d="m 296.04483,369.0452 h 5.52797 v 5.52797 h -5.52797 z" /><path
         id="rect570"
         style="fill:none;stroke:#1a1a1a;stroke-width:0.1;stroke-linecap:round;stroke-linejoin:round"
         transform="rotate(45)"
         d="m 302.72906,369.0452 h 5.52797 v 5.52797 h -5.52797 z" /><path
         id="rect575"
         style="fill:none;stroke:#1a1a1a;stroke-width:0.1;stroke-linecap:round;stroke-linejoin:round"
         transform="rotate(45)"
         d="m 336.15024,369.0452 h 5.52797 v 5.52797 h -5.52797 z" /><path
         id="rect576"
         style="fill:none;stroke:#1a1a1a;stroke-width:0.1;stroke-linecap:round;stroke-linejoin:round"
         transform="rotate(45)"
         d="m 329.466,369.0452 h 5.52797 v 5.52797 H 329.466 Z" /><path
         id="rect577"
         style="fill:none;stroke:#1a1a1a;stroke-width:0.1;stroke-linecap:round;stroke-linejoin:round"
         transform="rotate(45)"
         d="m 322.78177,369.0452 h 5.52797 v 5.52797 h -5.52797 z" /><path
         id="rect578"
         style="fill:none;stroke:#1a1a1a;stroke-width:0.1;stroke-linecap:round;stroke-linejoin:round"
         transform="rotate(45)"
         d="m 316.09753,369.0452 h 5.52797 v 5.52797 h -5.52797 z" /><path
         id="rect579"
         style="fill:none;stroke:#1a1a1a;stroke-width:0.1;stroke-linecap:round;stroke-linejoin:round"
         transform="rotate(45)"
         d="m 309.4133,369.0452 h 5.52797 v 5.52797 h -5.52797 z" /><path
         id="rect592"
         style="fill:none;stroke:#1a1a1a;stroke-width:0.1;stroke-linecap:round;stroke-linejoin:round"
         transform="rotate(45)"
         d="m 322.78177,355.67673 h 5.52797 v 5.52797 h -5.52797 z" /><path
         id="rect593"
         style="fill:none;stroke:#1a1a1a;stroke-width:0.1;stroke-linecap:round;stroke-linejoin:round"
         transform="rotate(45)"
         d="m 316.09753,355.67673 h 5.52797 v 5.52797 h -5.52797 z" /><path
         id="rect594"
         style="fill:none;stroke:#1a1a1a;stroke-width:0.1;stroke-linecap:round;stroke-linejoin:round"
         transform="rotate(45)"
         d="m 309.4133,355.67673 h 5.52797 v 5.52797 h -5.52797 z" /><path
         id="rect600"
         style="fill:none;stroke:#1a1a1a;stroke-width:0.1;stroke-linecap:round;stroke-linejoin:round"
         transform="rotate(45)"
         d="m 302.72906,362.36096 h 5.52797 v 5.52797 h -5.52797 z" /><path
         id="rect606"
         style="fill:none;stroke:#1a1a1a;stroke-width:0.1;stroke-linecap:round;stroke-linejoin:round"
         transform="rotate(45)"
         d="m 329.466,362.36096 h 5.52797 v 5.52797 H 329.466 Z" /><path
         id="rect607"
         style="fill:none;stroke:#1a1a1a;stroke-width:0.1;stroke-linecap:round;stroke-linejoin:round"
         transform="rotate(45)"
         d="m 322.78177,362.36096 h 5.52797 v 5.52797 h -5.52797 z" /><path
         id="rect608"
         style="fill:none;stroke:#1a1a1a;stroke-width:0.1;stroke-linecap:round;stroke-linejoin:round"
         transform="rotate(45)"
         d="m 316.09753,362.36096 h 5.52797 v 5.52797 h -5.52797 z" /><path
         id="rect609"
         style="fill:none;stroke:#1a1a1a;stroke-width:0.1;stroke-linecap:round;stroke-linejoin:round"
         transform="rotate(45)"
         d="m 309.4133,362.36096 h 5.52797 v 5.52797 h -5.52797 z" /></g></g></svg>
