<?xml version="1.0" encoding="UTF-8" standalone="no"?>
<!-- Created with Inkscape (http://www.inkscape.org/) -->

<svg
   width="80mm"
   height="80mm"
   viewBox="0 0 80 80"
   version="1.1"
   id="svg1"
   inkscape:version="1.3 (1:1.3+202307231459+0e150ed6c4)"
   sodipodi:docname="drawing_21.svg"
   xml:space="preserve"
   xmlns:inkscape="http://www.inkscape.org/namespaces/inkscape"
   xmlns:sodipodi="http://sodipodi.sourceforge.net/DTD/sodipodi-0.dtd"
   xmlns="http://www.w3.org/2000/svg"
   xmlns:svg="http://www.w3.org/2000/svg"><sodipodi:namedview
     id="namedview1"
     pagecolor="#ffffff"
     bordercolor="#000000"
     borderopacity="0.25"
     inkscape:showpageshadow="2"
     inkscape:pageopacity="0.0"
     inkscape:pagecheckerboard="0"
     inkscape:deskcolor="#d1d1d1"
     inkscape:document-units="mm"
     inkscape:zoom="2.8284271"
     inkscape:cx="191.44916"
     inkscape:cy="223.09219"
     inkscape:window-width="2560"
     inkscape:window-height="1376"
     inkscape:window-x="0"
     inkscape:window-y="0"
     inkscape:window-maximized="1"
     inkscape:current-layer="layer1" /><defs
     id="defs1" /><g
     inkscape:label="Layer 1"
     inkscape:groupmode="layer"
     id="layer1"
     transform="translate(-14.779481,-197.40917)"><g
       id="g276" /><g
       id="g278"
       transform="rotate(90,150.02319,417.32394)" /><g
       id="g280"
       transform="rotate(180,150.02718,417.32167)" /><g
       id="g282"
       transform="rotate(-90,150.03116,417.31939)" /><path
       id="rect7"
       style="fill:none;stroke:#1a1a1a;stroke-width:0.0980965;stroke-linecap:round;stroke-linejoin:round"
       d="m 30.961815,203.03641 h 5.291784 m 5.291784,0 h 5.291784 m 5.291784,0 h 5.291785 m 5.291784,0 h 5.291784 m 5.291784,0 h 5.291784 m 5.291784,0 h 5.272558 v 5.26975 m 0,5.29195 v 5.29196 m 0,5.29195 v 5.29195 m 0,5.29196 v 5.29195 m 0,5.29196 v 5.29195 m 0,5.29195 v 5.29196 m 0,5.29195 v 5.26423 h -5.25848 m -5.292029,0 h -5.292029 m -5.292029,0 h -5.292029 m -5.292029,0 h -5.292028 m -5.292029,0 h -5.292029 m -5.292029,0 h -5.292029 m -5.292029,0 h -5.27467 v -5.23556 m 0,-5.2934 v -5.29339 m 0,-5.2934 v -5.29339 m 0,-5.2934 v -5.29339 m 0,-5.2934 v -5.29339 m 0,-5.2934 v -5.29339 m 0,-5.2934 v -5.28256 h 5.263285"
       sodipodi:nodetypes="cccccccccccccccccccccccccccccccccccccccccccccccccccc" /><path
       style="fill:none;stroke:#000000;stroke-width:0.1;stroke-linecap:round;stroke-linejoin:round;stroke-dasharray:none"
       d="m 33.633508,210.97989 18.513862,18.51386 m 2.642663,2.64266 5.279837,5.27984 m 2.659147,2.65915 18.516769,18.51677"
       id="path77"
       sodipodi:nodetypes="cccccc" /><path
       style="fill:none;stroke:#000000;stroke-width:0.1;stroke-linecap:round;stroke-linejoin:round;stroke-dasharray:none"
       d="m 33.639679,205.6944 15.873349,15.87335 m 2.645071,2.64507 2.638218,2.63822 m 2.651421,2.65142 5.275857,5.27586 m 2.6448,2.6448 2.640808,2.64081 m 2.644272,2.64427 15.885203,15.8852"
       id="path78"
       sodipodi:nodetypes="cccccccccc" /><path
       style="fill:none;stroke:#000000;stroke-width:0.1;stroke-linecap:round;stroke-linejoin:round;stroke-dasharray:none"
       d="m 36.27357,203.03662 15.886204,15.8862 m 2.656312,2.65631 2.631254,2.63126 m 10.587548,10.58754 2.639614,2.63961 m 2.632807,2.63281 15.834137,15.83414"
       id="path79"
       sodipodi:nodetypes="cccccccc" /><path
       style="fill:none;stroke:#000000;stroke-width:0.1;stroke-linecap:round;stroke-linejoin:round;stroke-dasharray:none"
       d="m 41.574763,203.04615 13.220253,13.22025 m 2.652606,2.6526 2.649445,2.64945 m 10.559857,10.55985 2.63813,2.63813 m 2.653521,2.65352 13.19901,13.19901"
       id="path80"
       sodipodi:nodetypes="cccccccc" /><path
       style="fill:none;stroke:#000000;stroke-width:0.1;stroke-linecap:round;stroke-linejoin:round;stroke-dasharray:none"
       d="m 46.854831,203.03455 7.941754,7.94175 m 26.451431,26.45143 7.90333,7.90333"
       id="path81"
       sodipodi:nodetypes="cccc" /><path
       style="fill:none;stroke:#000000;stroke-width:0.1;stroke-linecap:round;stroke-linejoin:round;stroke-dasharray:none"
       d="m 52.156847,203.04489 2.662972,2.66297 m 31.720742,31.72074 2.604361,2.60436"
       id="path82"
       sodipodi:nodetypes="cccc" /><path
       style="fill:none;stroke:#000000;stroke-width:0.1;stroke-linecap:round;stroke-linejoin:round;stroke-dasharray:none"
       d="m 75.955107,210.96815 5.279751,5.27975"
       id="path85"
       sodipodi:nodetypes="cc" /><path
       style="fill:none;stroke:#000000;stroke-width:0.1;stroke-linecap:round;stroke-linejoin:round;stroke-dasharray:none"
       d="m 75.963844,205.68522 10.560791,10.56079"
       id="path86"
       sodipodi:nodetypes="cc" /><path
       style="fill:none;stroke:#000000;stroke-width:0.1;stroke-linecap:round;stroke-linejoin:round;stroke-dasharray:none"
       d="M 78.600681,203.03039 89.18836,213.61807"
       id="path87"
       sodipodi:nodetypes="cc" /><path
       style="fill:none;stroke:#000000;stroke-width:0.1;stroke-linecap:round;stroke-linejoin:round;stroke-dasharray:none"
       d="m 83.903679,203.04172 5.280888,5.28089"
       id="path88"
       sodipodi:nodetypes="cc" /><path
       style="fill:none;stroke:#000000;stroke-width:0.1;stroke-linecap:round;stroke-linejoin:round;stroke-dasharray:none"
       d="m 75.968917,263.87585 -18.5292,-18.52919 m -2.63994,-2.63994 -5.271511,-5.27151 m -2.662628,-2.66263 -18.51129,-18.51129"
       id="path89"
       sodipodi:nodetypes="cccccc" /><path
       style="fill:none;stroke:#000000;stroke-width:0.1;stroke-linecap:round;stroke-linejoin:round;stroke-dasharray:none"
       d="m 76.003805,269.20241 -15.92174,-15.92174 m -2.650969,-2.65097 -2.634498,-2.6345 m -2.648296,-2.64829 -5.276818,-5.27682 m -2.643104,-2.6431 -2.645605,-2.64561 m -2.671449,-2.67144 -15.844043,-15.84405"
       id="path90"
       sodipodi:nodetypes="cccccccccc" /><path
       style="fill:none;stroke:#000000;stroke-width:0.1;stroke-linecap:round;stroke-linejoin:round;stroke-dasharray:none"
       d="M 73.330415,271.82069 57.457259,255.94753 m -2.653887,-2.65388 -2.62865,-2.62865 m -10.589997,-10.59 -2.63637,-2.63637 m -2.664388,-2.66439 -15.872222,-15.87222"
       id="path91"
       sodipodi:nodetypes="cccccccc" /><path
       style="fill:none;stroke:#000000;stroke-width:0.1;stroke-linecap:round;stroke-linejoin:round;stroke-dasharray:none"
       d="M 67.98867,271.77061 54.788039,258.56998 m -2.644135,-2.64413 -2.619835,-2.61984 m -10.606495,-10.60649 -2.636468,-2.63647 m -2.638534,-2.63853 -13.23351,-13.23351"
       id="path92"
       sodipodi:nodetypes="cccccccc" /><path
       style="fill:none;stroke:#000000;stroke-width:0.1;stroke-linecap:round;stroke-linejoin:round;stroke-dasharray:none"
       d="m 62.695744,271.76935 -7.892113,-7.89211 M 28.360296,237.4339 20.411825,229.48543"
       id="path93"
       sodipodi:nodetypes="cccc" /><path
       style="fill:none;stroke:#000000;stroke-width:0.1;stroke-linecap:round;stroke-linejoin:round;stroke-dasharray:none"
       d="m 57.434727,271.8 -2.640686,-2.64069 m -31.755129,-31.75512 -2.617869,-2.61787"
       id="path94"
       sodipodi:nodetypes="cccc" /><path
       style="fill:none;stroke:#000000;stroke-width:0.1;stroke-linecap:round;stroke-linejoin:round;stroke-dasharray:none"
       d="M 33.651135,263.89141 28.38705,258.62732"
       id="path97"
       sodipodi:nodetypes="cc" /><path
       style="fill:none;stroke:#000000;stroke-width:0.1;stroke-linecap:round;stroke-linejoin:round;stroke-dasharray:none"
       d="M 33.623924,269.15586 23.07282,258.60477"
       id="path98"
       sodipodi:nodetypes="cc" /><path
       style="fill:none;stroke:#000000;stroke-width:0.1;stroke-linecap:round;stroke-linejoin:round;stroke-dasharray:none"
       d="M 30.966817,271.79043 20.415942,261.23955"
       id="path99"
       sodipodi:nodetypes="cc" /><path
       style="fill:none;stroke:#000000;stroke-width:0.1;stroke-linecap:round;stroke-linejoin:round;stroke-dasharray:none"
       d="m 25.664072,271.77935 -5.259484,-5.25948"
       id="path100"
       sodipodi:nodetypes="cc" /><path
       style="fill:none;stroke:#000000;stroke-width:0.1;stroke-linecap:round;stroke-linejoin:round;stroke-dasharray:none"
       d="m 75.955721,210.97468 -18.526662,18.52666 m -2.636597,2.6366 -5.283203,5.2832 m -2.654086,2.65409 -18.517736,18.51773"
       id="path102"
       sodipodi:nodetypes="cccccc" /><path
       style="fill:none;stroke:#000000;stroke-width:0.1;stroke-linecap:round;stroke-linejoin:round;stroke-dasharray:none"
       d="m 75.962015,205.67671 -15.877798,15.8778 m -2.656353,2.65635 -2.637433,2.63743 m -2.646909,2.64691 -5.281233,5.28123 m -2.650097,2.6501 -2.635401,2.6354 m -2.650662,2.65066 -15.880134,15.88014"
       id="path103"
       sodipodi:nodetypes="cccccccccc" /><path
       style="fill:none;stroke:#000000;stroke-width:0.1;stroke-linecap:round;stroke-linejoin:round;stroke-dasharray:none"
       d="m 73.317031,203.03003 -15.875096,15.8751 m -2.659173,2.65917 -2.632054,2.63205 m -10.57606,10.57606 -2.657083,2.65708 m -2.643067,2.64307 -15.872399,15.8724"
       id="path104"
       sodipodi:nodetypes="cccccccc" /><path
       style="fill:none;stroke:#000000;stroke-width:0.1;stroke-linecap:round;stroke-linejoin:round;stroke-dasharray:none"
       d="m 68.017939,203.03745 -13.233772,13.23377 m -2.641349,2.64135 -2.660053,2.66005 m -10.555023,10.55502 -2.66657,2.66657 m -2.62513,2.62513 -13.232719,13.23272"
       id="path105"
       sodipodi:nodetypes="cccccccc" /><path
       style="fill:none;stroke:#000000;stroke-width:0.1;stroke-linecap:round;stroke-linejoin:round;stroke-dasharray:none"
       d="m 62.73682,203.0269 -7.946544,7.94654 m -26.468273,26.46827 -7.910006,7.91001"
       id="path106"
       sodipodi:nodetypes="cccc" /><path
       style="fill:none;stroke:#000000;stroke-width:0.1;stroke-linecap:round;stroke-linejoin:round;stroke-dasharray:none"
       d="m 57.439612,203.03244 -2.638861,2.63886 m -31.751726,31.75172 -2.643797,2.6438"
       id="path107"
       sodipodi:nodetypes="cccc" /><path
       style="fill:none;stroke:#000000;stroke-width:0.1;stroke-linecap:round;stroke-linejoin:round;stroke-dasharray:none"
       d="m 33.636755,210.9603 -5.301743,5.30174"
       id="path110"
       sodipodi:nodetypes="cc" /><path
       style="fill:none;stroke:#000000;stroke-width:0.1;stroke-linecap:round;stroke-linejoin:round;stroke-dasharray:none"
       d="M 33.622653,205.68273 23.058298,216.24709"
       id="path111"
       sodipodi:nodetypes="cc" /><path
       style="fill:none;stroke:#000000;stroke-width:0.1;stroke-linecap:round;stroke-linejoin:round;stroke-dasharray:none"
       d="M 30.986357,203.02736 20.405779,213.60794"
       id="path112"
       sodipodi:nodetypes="cc" /><path
       style="fill:none;stroke:#000000;stroke-width:0.1;stroke-linecap:round;stroke-linejoin:round;stroke-dasharray:none"
       d="m 25.682092,203.03996 -5.283355,5.28335"
       id="path113"
       sodipodi:nodetypes="cc" /><path
       style="fill:none;stroke:#000000;stroke-width:0.1;stroke-linecap:round;stroke-linejoin:round;stroke-dasharray:none"
       d="M 33.617438,263.87351 52.14433,245.34662 m 2.639955,-2.63995 5.288178,-5.28818 m 2.642636,-2.64264 18.493522,-18.49352"
       id="path114"
       sodipodi:nodetypes="cccccc" /><path
       style="fill:none;stroke:#000000;stroke-width:0.1;stroke-linecap:round;stroke-linejoin:round;stroke-dasharray:none"
       d="m 33.627734,269.15488 15.882129,-15.88213 m 2.644331,-2.64433 2.632778,-2.63278 m 2.649256,-2.64926 5.276996,-5.27699 m 2.651711,-2.65171 2.648827,-2.64883 m 2.64683,-2.64683 15.872058,-15.87206"
       id="path115"
       sodipodi:nodetypes="cccccccccc" /><path
       style="fill:none;stroke:#000000;stroke-width:0.1;stroke-linecap:round;stroke-linejoin:round;stroke-dasharray:none"
       d="M 36.299575,271.77471 52.13808,255.9362 m 2.646673,-2.64667 2.657287,-2.65729 m 10.577213,-10.57721 2.645002,-2.645 m 2.616593,-2.61659 15.873754,-15.87376"
       id="path116"
       sodipodi:nodetypes="cccccccc" /><path
       style="fill:none;stroke:#000000;stroke-width:0.1;stroke-linecap:round;stroke-linejoin:round;stroke-dasharray:none"
       d="m 41.595844,271.7701 13.195092,-13.19509 m 2.639245,-2.63924 2.65583,-2.65583 m 10.574188,-10.57419 2.64039,-2.64039 m 2.642353,-2.64235 13.204072,-13.20407"
       id="path117"
       sodipodi:nodetypes="cccccccc" /><path
       style="fill:none;stroke:#000000;stroke-width:0.1;stroke-linecap:round;stroke-linejoin:round;stroke-dasharray:none"
       d="m 46.878403,271.77921 7.896869,-7.89687 m 26.47442,-26.47441 7.893848,-7.89385"
       id="path118"
       sodipodi:nodetypes="cccc" /><path
       style="fill:none;stroke:#000000;stroke-width:0.1;stroke-linecap:round;stroke-linejoin:round;stroke-dasharray:none"
       d="m 52.17569,271.77359 2.614875,-2.61487 m 31.741944,-31.74194 2.641507,-2.64151"
       id="path119"
       sodipodi:nodetypes="cccc" /><path
       style="fill:none;stroke:#000000;stroke-width:0.1;stroke-linecap:round;stroke-linejoin:round;stroke-dasharray:none"
       d="m 75.94061,263.88367 5.289182,-5.28918"
       id="path122"
       sodipodi:nodetypes="cc" /><path
       style="fill:none;stroke:#000000;stroke-width:0.1;stroke-linecap:round;stroke-linejoin:round;stroke-dasharray:none"
       d="M 75.935048,269.18091 86.531251,258.5847"
       id="path123"
       sodipodi:nodetypes="cc" /><path
       style="fill:none;stroke:#000000;stroke-width:0.1;stroke-linecap:round;stroke-linejoin:round;stroke-dasharray:none"
       d="M 78.625998,271.78162 89.131139,261.27648"
       id="path124"
       sodipodi:nodetypes="cc" /><path
       style="fill:none;stroke:#000000;stroke-width:0.1;stroke-linecap:round;stroke-linejoin:round;stroke-dasharray:none"
       d="m 83.898593,271.80069 5.244643,-5.24464"
       id="path125"
       sodipodi:nodetypes="cc" /></g></svg>
