<?xml version="1.0" encoding="UTF-8" standalone="no"?>
<!-- Created with Inkscape (http://www.inkscape.org/) -->

<svg
   width="80mm"
   height="80mm"
   viewBox="0 0 80 80"
   version="1.1"
   id="svg1"
   inkscape:version="1.3 (1:1.3+202307231459+0e150ed6c4)"
   sodipodi:docname="drawing_02.svg"
   xmlns:inkscape="http://www.inkscape.org/namespaces/inkscape"
   xmlns:sodipodi="http://sodipodi.sourceforge.net/DTD/sodipodi-0.dtd"
   xmlns="http://www.w3.org/2000/svg"
   xmlns:svg="http://www.w3.org/2000/svg">
  <sodipodi:namedview
     id="namedview1"
     pagecolor="#ffffff"
     bordercolor="#000000"
     borderopacity="0.25"
     inkscape:showpageshadow="2"
     inkscape:pageopacity="0.0"
     inkscape:pagecheckerboard="0"
     inkscape:deskcolor="#d1d1d1"
     inkscape:document-units="mm"
     inkscape:zoom="2.8284271"
     inkscape:cx="148.6692"
     inkscape:cy="131.16831"
     inkscape:window-width="2560"
     inkscape:window-height="1376"
     inkscape:window-x="0"
     inkscape:window-y="0"
     inkscape:window-maximized="1"
     inkscape:current-layer="layer1" />
  <defs
     id="defs1" />
  <g
     inkscape:label="Layer 1"
     inkscape:groupmode="layer"
     id="layer1"
     transform="translate(-110.02945,-17.49243)">
    <path
       id="path37"
       style="fill:none;stroke:#1a1a1a;stroke-width:0.0924732;stroke-linecap:round;stroke-linejoin:round"
       d="m 137.17749,57.364817 c 0.59071,4.072864 1.94665,8.071416 4.08234,11.77382 6.61309,11.464344 19.42729,17.878501 32.56581,16.308886 2.6521,-0.207286 5.02971,-1.71753 6.3518,-4.029089 1.32208,-2.311558 1.41832,-5.126625 0.23803,-7.485376 -3.15435,-7.340026 -8.77507,-13.130463 -15.65338,-16.561524 l 0.12132,-0.930408 c 7.19395,3.508446 13.07697,9.522514 16.35444,17.184493 1.28675,2.631596 1.18092,5.727104 -0.27288,8.268952 -1.4538,2.541842 -4.06827,4.202541 -7.00487,4.441865 -13.51474,1.623038 -26.67622,-4.964975 -33.46857,-16.740029 -2.16342,-3.750447 -3.54782,-7.796762 -4.16638,-11.920685 z m 13.66,21.090941 c 3.17209,-2.528379 5.90658,-5.662853 8.01362,-9.309126 6.62186,-11.45928 5.7696,-25.76377 -2.15899,-36.357256 -1.50557,-2.193142 -4.00228,-3.497093 -6.66519,-3.486273 -2.66291,0.01082 -5.14895,1.335005 -6.60846,3.510157 -4.82121,6.435925 -7.02411,14.264259 -6.51103,21.992834 l -0.86541,0.337151 c -0.59335,-8.025883 1.67241,-16.175657 6.70175,-22.866596 1.64257,-2.403759 4.37628,-3.859865 7.30448,-3.871761 2.9282,-0.01189 5.67364,1.421962 7.3492,3.845457 8.16296,10.892595 9.03833,25.584792 2.23699,37.354653 -2.1282,3.682887 -4.87962,6.857424 -8.06961,9.430729 z m -1.54945,2.264665 c -6.64684,4.501421 -14.82249,6.598575 -23.12587,5.586754 -2.92932,-0.227831 -5.5572,-1.867241 -7.0316,-4.39719 -1.4744,-2.52995 -1.60537,-5.624501 -0.34434,-8.287329 5.35178,-12.515627 17.63791,-20.61978 31.23158,-20.614612 4.24699,0.0016 8.36574,0.794695 12.18488,2.265681 l -0.0991,0.914461 c -3.78315,-1.488457 -7.87346,-2.292823 -12.09383,-2.294449 -13.23496,-0.0051 -25.19688,7.885269 -30.40681,20.04837 -1.14653,2.400431 -1.02743,5.214622 0.3134,7.515363 1.34082,2.300741 3.73062,3.791621 6.37042,3.975219 7.94611,0.955202 15.78068,-1.015943 22.19553,-5.263684 z"
       sodipodi:nodetypes="cscsccccscscccscsccccscsccccscsccscsccc" />
    <g
       id="g276" />
    <g
       id="g278"
       transform="rotate(90,150.02319,417.32394)" />
    <g
       id="g280"
       transform="rotate(180,150.02718,417.32167)" />
    <g
       id="g282"
       transform="rotate(-90,150.03116,417.31939)" />
  </g>
</svg>
