<?xml version="1.0" encoding="UTF-8" standalone="no"?>
<!-- Created with Inkscape (http://www.inkscape.org/) -->

<svg
   width="80mm"
   height="80mm"
   viewBox="0 0 80 80"
   version="1.1"
   id="svg1"
   inkscape:version="1.3 (1:1.3+202307231459+0e150ed6c4)"
   sodipodi:docname="drawing_28.svg"
   xml:space="preserve"
   xmlns:inkscape="http://www.inkscape.org/namespaces/inkscape"
   xmlns:sodipodi="http://sodipodi.sourceforge.net/DTD/sodipodi-0.dtd"
   xmlns="http://www.w3.org/2000/svg"
   xmlns:svg="http://www.w3.org/2000/svg"><sodipodi:namedview
     id="namedview1"
     pagecolor="#ffffff"
     bordercolor="#000000"
     borderopacity="0.25"
     inkscape:showpageshadow="2"
     inkscape:pageopacity="0.0"
     inkscape:pagecheckerboard="0"
     inkscape:deskcolor="#d1d1d1"
     inkscape:document-units="mm"
     inkscape:zoom="2.8284271"
     inkscape:cx="72.831999"
     inkscape:cy="127.27922"
     inkscape:window-width="2560"
     inkscape:window-height="1376"
     inkscape:window-x="0"
     inkscape:window-y="27"
     inkscape:window-maximized="1"
     inkscape:current-layer="layer1" /><defs
     id="defs1" /><g
     inkscape:label="Layer 1"
     inkscape:groupmode="layer"
     id="layer1"
     transform="translate(-110.02945,-467.28383)"><path
       id="path615"
       style="fill:none;stroke:#000000;stroke-width:0.114237;stroke-linecap:round;stroke-linejoin:round"
       d="m 170.73231,497.10929 a 20.702859,20.702859 0 0 1 -20.70285,20.70285 20.702859,20.702859 0 0 1 -20.70286,-20.70285 20.702859,20.702859 0 0 1 20.70286,-20.70286 20.702859,20.702859 0 0 1 20.70285,20.70286 z" /><path
       id="rect615"
       style="fill:none;stroke:#000000;stroke-width:0.137616;stroke-linecap:round;stroke-linejoin:round"
       d="m 141.0348,519.88019 h 17.98929 c 0.62288,0 1.12435,0.50145 1.12435,1.12433 0,0.62288 -0.50147,1.12435 -1.12435,1.12435 H 141.0348 c -0.62288,0 -1.12432,-0.50147 -1.12432,-1.12435 0,-0.62288 0.50144,-1.12433 1.12432,-1.12433 z" /><path
       id="rect616"
       style="fill:none;stroke:#000000;stroke-width:0.137616;stroke-linecap:round;stroke-linejoin:round"
       d="m 141.0348,523.88537 h 17.98929 c 0.62288,0 1.12435,0.50145 1.12435,1.12433 0,0.62288 -0.50147,1.12433 -1.12435,1.12433 H 141.0348 c -0.62288,0 -1.12432,-0.50145 -1.12432,-1.12433 0,-0.62288 0.50144,-1.12433 1.12432,-1.12433 z" /><path
       id="rect618"
       style="fill:none;stroke:#000000;stroke-width:0.137616;stroke-linecap:round;stroke-linejoin:round"
       d="m 141.0348,527.89053 h 17.98929 c 0.62288,0 1.12435,0.50145 1.12435,1.12433 0,0.62288 -0.50147,1.12433 -1.12435,1.12433 H 141.0348 c -0.62288,0 -1.12432,-0.50145 -1.12432,-1.12433 0,-0.62288 0.50144,-1.12433 1.12432,-1.12433 z" /><path
       id="rect619"
       style="fill:none;stroke:#000000;stroke-width:0.137616;stroke-linecap:round;stroke-linejoin:round"
       d="m 141.0348,531.89569 h 17.98929 c 0.62288,0 1.12435,0.50147 1.12435,1.12435 0,0.62288 -0.50147,1.12431 -1.12435,1.12431 H 141.0348 c -0.62288,0 -1.12432,-0.50143 -1.12432,-1.12431 0,-0.62288 0.50144,-1.12435 1.12432,-1.12435 z" /><path
       id="rect620"
       style="fill:none;stroke:#000000;stroke-width:0.137616;stroke-linecap:round;stroke-linejoin:round"
       d="m 143.5635,535.90085 h 12.9319 c 0.62288,0 1.12433,0.50145 1.12433,1.12433 v 4e-5 c 0,0.62288 -0.50145,1.12433 -1.12433,1.12433 h -12.9319 c -0.62289,0 -1.12433,-0.50145 -1.12433,-1.12433 v -4e-5 c 0,-0.62288 0.50144,-1.12433 1.12433,-1.12433 z" /></g></svg>
