<?xml version="1.0" encoding="UTF-8" standalone="no"?>
<!-- Created with Inkscape (http://www.inkscape.org/) -->

<svg
   width="80mm"
   height="80mm"
   viewBox="0 0 80 80"
   version="1.1"
   id="svg1"
   inkscape:version="1.3 (1:1.3+202307231459+0e150ed6c4)"
   sodipodi:docname="drawing_15.svg"
   xmlns:inkscape="http://www.inkscape.org/namespaces/inkscape"
   xmlns:sodipodi="http://sodipodi.sourceforge.net/DTD/sodipodi-0.dtd"
   xmlns="http://www.w3.org/2000/svg"
   xmlns:svg="http://www.w3.org/2000/svg">
  <sodipodi:namedview
     id="namedview1"
     pagecolor="#ffffff"
     bordercolor="#000000"
     borderopacity="0.25"
     inkscape:showpageshadow="2"
     inkscape:pageopacity="0.0"
     inkscape:pagecheckerboard="0"
     inkscape:deskcolor="#d1d1d1"
     inkscape:document-units="mm"
     inkscape:zoom="2.8284271"
     inkscape:cx="64.877047"
     inkscape:cy="157.33126"
     inkscape:window-width="2560"
     inkscape:window-height="1376"
     inkscape:window-x="0"
     inkscape:window-y="0"
     inkscape:window-maximized="1"
     inkscape:current-layer="layer1" />
  <defs
     id="defs1" />
  <g
     inkscape:label="Layer 1"
     inkscape:groupmode="layer"
     id="layer1"
     transform="translate(-14.779481,-647.20092)">
    <g
       id="g276" />
    <g
       id="g278"
       transform="rotate(90,150.02319,417.32394)" />
    <g
       id="g280"
       transform="rotate(180,150.02718,417.32167)" />
    <g
       id="g282"
       transform="rotate(-90,150.03116,417.31939)" />
    <g
       id="g311"
       transform="matrix(0.81975009,0,0,0.81975009,9.8500074,117.90635)">
      <path
         id="path308"
         style="fill:none;stroke:#000000;stroke-width:0.1;stroke-linecap:round;stroke-linejoin:round"
         d="m 21.658962,654.09344 c 7.205925,10.59945 19.362899,17.56165 33.145981,17.56165 13.787932,0 25.948612,-6.9671 33.153587,-17.57284 l -5.836361,-0.0104 c -6.483674,7.89496 -16.320822,12.93105 -27.334213,12.93105 -11.010846,0 -20.845992,-5.03377 -27.329717,-12.92558 z"
         sodipodi:nodetypes="csccscc" />
      <path
         id="path310"
         style="fill:none;stroke:#000000;stroke-width:0.1;stroke-linecap:round;stroke-linejoin:round"
         d="m 33.391602,654.08488 c 5.570179,5.30269 13.10772,8.55761 21.405487,8.55761 8.299555,0 15.838557,-3.25632 21.409087,-8.56104 l -7.259762,-6.7e-4 c -4.119025,2.61098 -9.003671,4.12274 -14.241408,4.12274 -5.233138,0 -10.113806,-1.5091 -14.230558,-4.11586 z"
         sodipodi:nodetypes="csccscc" />
    </g>
    <g
       id="g315"
       transform="matrix(0,0.81975009,-0.81975009,0,624.07406,642.27145)">
      <path
         id="path314"
         style="fill:none;stroke:#000000;stroke-width:0.1;stroke-linecap:round;stroke-linejoin:round"
         d="m 21.658962,654.09344 c 7.205925,10.59945 19.362899,17.56165 33.145981,17.56165 13.787932,0 25.948612,-6.9671 33.153587,-17.57284 l -5.836361,-0.0104 c -6.483674,7.89496 -16.320822,12.93105 -27.334213,12.93105 -11.010846,0 -20.845992,-5.03377 -27.329717,-12.92558 z"
         sodipodi:nodetypes="csccscc" />
      <path
         id="path315"
         style="fill:none;stroke:#000000;stroke-width:0.1;stroke-linecap:round;stroke-linejoin:round"
         d="m 33.391602,654.08488 c 5.570179,5.30269 13.10772,8.55761 21.405487,8.55761 8.299555,0 15.838557,-3.25632 21.409087,-8.56104 l -7.259762,-6.7e-4 c -4.119025,2.61098 -9.003671,4.12274 -14.241408,4.12274 -5.233138,0 -10.113806,-1.5091 -14.230558,-4.11586 z"
         sodipodi:nodetypes="csccscc" />
    </g>
    <g
       id="g317"
       transform="matrix(-0.81975009,0,0,-0.81975009,99.708956,1256.4955)">
      <path
         id="path316"
         style="fill:none;stroke:#000000;stroke-width:0.1;stroke-linecap:round;stroke-linejoin:round"
         d="m 21.658962,654.09344 c 7.205925,10.59945 19.362899,17.56165 33.145981,17.56165 13.787932,0 25.948612,-6.9671 33.153587,-17.57284 l -5.836361,-0.0104 c -6.483674,7.89496 -16.320822,12.93105 -27.334213,12.93105 -11.010846,0 -20.845992,-5.03377 -27.329717,-12.92558 z"
         sodipodi:nodetypes="csccscc" />
      <path
         id="path317"
         style="fill:none;stroke:#000000;stroke-width:0.1;stroke-linecap:round;stroke-linejoin:round"
         d="m 33.391602,654.08488 c 5.570179,5.30269 13.10772,8.55761 21.405487,8.55761 8.299555,0 15.838557,-3.25632 21.409087,-8.56104 l -7.259762,-6.7e-4 c -4.119025,2.61098 -9.003671,4.12274 -14.241408,4.12274 -5.233138,0 -10.113806,-1.5091 -14.230558,-4.11586 z"
         sodipodi:nodetypes="csccscc" />
    </g>
    <g
       id="g319"
       transform="matrix(0,-0.81975009,0.81975009,0,-514.5151,732.1304)">
      <path
         id="path318"
         style="fill:none;stroke:#000000;stroke-width:0.1;stroke-linecap:round;stroke-linejoin:round"
         d="m 21.658962,654.09344 c 7.205925,10.59945 19.362899,17.56165 33.145981,17.56165 13.787932,0 25.948612,-6.9671 33.153587,-17.57284 l -5.836361,-0.0104 c -6.483674,7.89496 -16.320822,12.93105 -27.334213,12.93105 -11.010846,0 -20.845992,-5.03377 -27.329717,-12.92558 z"
         sodipodi:nodetypes="csccscc" />
      <path
         id="path319"
         style="fill:none;stroke:#000000;stroke-width:0.1;stroke-linecap:round;stroke-linejoin:round"
         d="m 33.391602,654.08488 c 5.570179,5.30269 13.10772,8.55761 21.405487,8.55761 8.299555,0 15.838557,-3.25632 21.409087,-8.56104 l -7.259762,-6.7e-4 c -4.119025,2.61098 -9.003671,4.12274 -14.241408,4.12274 -5.233138,0 -10.113806,-1.5091 -14.230558,-4.11586 z"
         sodipodi:nodetypes="csccscc" />
    </g>
    <path
       id="circle321"
       style="fill:none;stroke:#000000;stroke-width:0.1;stroke-linecap:round;stroke-linejoin:round"
       d="m 49.601132,703.07189 c -5.072389,-1.64614 -9.084014,-5.6711 -10.717727,-10.7504 -0.817624,6.36317 -3.126552,12.24872 -6.560181,17.30284 5.052758,-3.43302 10.92777,-5.73867 17.277908,-6.55244 z m 27.642842,6.56537 c -3.430482,-5.03905 -5.740072,-10.9106 -6.576114,-17.25832 -1.650699,5.03436 -5.628281,9.02438 -10.666883,10.68654 6.330523,0.82989 12.197606,3.13657 17.242997,6.57178 z"
       sodipodi:nodetypes="cccccccc" />
    <path
       id="circle322"
       style="fill:none;stroke:#000000;stroke-width:0.1;stroke-linecap:round;stroke-linejoin:round"
       d="m 77.242045,664.70316 c -5.083512,3.46019 -11.002878,5.77592 -17.351051,6.5994 5.126117,1.66333 9.142001,5.68579 10.777362,10.76262 0.809957,-6.388 3.12485,-12.29467 6.573689,-17.36202 z"
       sodipodi:nodetypes="cccc" />
    <path
       id="circle323"
       style="fill:none;stroke:#000000;stroke-width:0.1;stroke-linecap:round;stroke-linejoin:round"
       d="m 38.890518,682.07259 c 1.649689,-5.12371 5.711823,-9.1661 10.847941,-10.78616 -6.403916,-0.80014 -12.336126,-3.1188 -17.438962,-6.60188 3.455289,5.06439 5.779935,10.98994 6.591021,17.38804 z"
       sodipodi:nodetypes="cccc" />
    <circle
       style="fill:none;stroke:#000000;stroke-width:0.0982107;stroke-linecap:round;stroke-linejoin:round;stroke-dasharray:none"
       id="circle324"
       cx="54.77948"
       cy="687.20093"
       r="11.97898" />
  </g>
</svg>
