<?xml version="1.0" encoding="UTF-8" standalone="no"?>
<!-- Created with Inkscape (http://www.inkscape.org/) -->

<svg
   width="80mm"
   height="80mm"
   viewBox="0 0 80 80"
   version="1.1"
   id="svg1"
   inkscape:version="1.3 (1:1.3+202307231459+0e150ed6c4)"
   sodipodi:docname="drawing_31.svg"
   xmlns:inkscape="http://www.inkscape.org/namespaces/inkscape"
   xmlns:sodipodi="http://sodipodi.sourceforge.net/DTD/sodipodi-0.dtd"
   xmlns="http://www.w3.org/2000/svg"
   xmlns:svg="http://www.w3.org/2000/svg">
  <sodipodi:namedview
     id="namedview1"
     pagecolor="#ffffff"
     bordercolor="#000000"
     borderopacity="0.25"
     inkscape:showpageshadow="2"
     inkscape:pageopacity="0.0"
     inkscape:pagecheckerboard="0"
     inkscape:deskcolor="#d1d1d1"
     inkscape:document-units="mm"
     inkscape:zoom="2.0000001"
     inkscape:cx="110.75"
     inkscape:cy="167"
     inkscape:window-width="2560"
     inkscape:window-height="1376"
     inkscape:window-x="0"
     inkscape:window-y="0"
     inkscape:window-maximized="1"
     inkscape:current-layer="layer1" />
  <defs
     id="defs1" />
  <g
     inkscape:label="Layer 1"
     inkscape:groupmode="layer"
     id="layer1"
     transform="translate(-110.02945,-107.45077)">
    <g
       id="g276" />
    <g
       id="g278"
       transform="rotate(90,150.02319,417.32394)" />
    <g
       id="g280"
       transform="rotate(180,150.02718,417.32167)" />
    <g
       id="g282"
       transform="rotate(-90,150.03116,417.31939)" />
    <path
       id="path69"
       style="fill:none;stroke:#000000;stroke-width:0.1;stroke-linecap:round;stroke-linejoin:round"
       d="m 145.84817,119.94273 c 3.24458,0 6.21419,1.17735 8.48538,3.11473 2.38808,-2.88003 5.99896,-4.70221 10.03543,-4.70221 7.24858,0 13.12471,5.87613 13.12471,13.12471 0,1.56145 -0.27267,3.05921 -0.7651,4.43216 2.46206,0.80734 4.23019,3.12586 4.23019,5.85734 0,3.42077 -2.77308,6.19385 -6.19385,6.19384 h -46.2563 c -5.19618,0 -9.40851,-4.21234 -9.40851,-9.40852 0,-5.19618 4.21233,-9.40851 9.40851,-9.40851 1.62743,0 3.15836,0.4132 4.49835,1.15644 1.2682,-5.91295 6.53537,-10.35998 12.84119,-10.35998 z"
       sodipodi:nodetypes="scsscsccsscs" />
    <path
       id="path3"
       style="fill:none;stroke:#000000;stroke-width:0.152841;stroke-linecap:round;stroke-linejoin:round;stroke-dasharray:none"
       inkscape:transform-center-x="0.27893937"
       inkscape:transform-center-y="-0.46259013"
       d="m 172.15749,149.9661 -0.0128,4.0651 c -0.0126,0.25548 -0.0723,0.52282 -0.1938,0.7766 -0.45108,0.94202 -1.58044,1.34003 -2.52246,0.88895 -0.94204,-0.45108 -1.34003,-1.58041 -0.88895,-2.52244 0.11908,-0.2487 0.28542,-0.45945 0.46522,-0.63861 z"
       sodipodi:nodetypes="ccssscc" />
    <path
       id="path4"
       style="fill:none;stroke:#000000;stroke-width:0.152841;stroke-linecap:round;stroke-linejoin:round;stroke-dasharray:none"
       inkscape:transform-center-x="0.27893937"
       inkscape:transform-center-y="-0.46259013"
       d="m 161.57415,149.9661 -0.0128,4.0651 c -0.0126,0.25548 -0.0723,0.52282 -0.1938,0.7766 -0.45108,0.94202 -1.58044,1.34003 -2.52246,0.88895 -0.94204,-0.45108 -1.34003,-1.58041 -0.88895,-2.52244 0.11908,-0.2487 0.28542,-0.45945 0.46522,-0.63861 z"
       sodipodi:nodetypes="ccssscc" />
    <path
       id="path5"
       style="fill:none;stroke:#000000;stroke-width:0.152841;stroke-linecap:round;stroke-linejoin:round;stroke-dasharray:none"
       inkscape:transform-center-x="0.27893937"
       inkscape:transform-center-y="-0.46259013"
       d="m 150.99081,149.9661 -0.0128,4.0651 c -0.0126,0.25548 -0.0723,0.52282 -0.1938,0.7766 -0.45108,0.94202 -1.58044,1.34003 -2.52246,0.88895 -0.94204,-0.45108 -1.34003,-1.58041 -0.88895,-2.52244 0.11908,-0.2487 0.28542,-0.45945 0.46522,-0.63861 z"
       sodipodi:nodetypes="ccssscc" />
    <path
       id="path6"
       style="fill:none;stroke:#000000;stroke-width:0.152841;stroke-linecap:round;stroke-linejoin:round;stroke-dasharray:none"
       inkscape:transform-center-x="0.27893937"
       inkscape:transform-center-y="-0.46259013"
       d="m 140.40747,149.9661 -0.0128,4.0651 c -0.0126,0.25548 -0.0723,0.52282 -0.1938,0.7766 -0.45108,0.94202 -1.58044,1.34003 -2.52246,0.88895 -0.94204,-0.45108 -1.34003,-1.58041 -0.88895,-2.52244 0.11908,-0.2487 0.28542,-0.45945 0.46522,-0.63861 z"
       sodipodi:nodetypes="ccssscc" />
    <path
       id="path7"
       style="fill:none;stroke:#000000;stroke-width:0.152841;stroke-linecap:round;stroke-linejoin:round;stroke-dasharray:none"
       inkscape:transform-center-x="0.27893937"
       inkscape:transform-center-y="-0.46259013"
       d="m 129.82413,149.9661 -0.0128,4.0651 c -0.0126,0.25548 -0.0723,0.52282 -0.1938,0.7766 -0.45108,0.94202 -1.58044,1.34003 -2.52246,0.88895 -0.94204,-0.45108 -1.34003,-1.58041 -0.88895,-2.52244 0.11908,-0.2487 0.28542,-0.45945 0.46522,-0.63861 z"
       sodipodi:nodetypes="ccssscc" />
    <path
       id="path9"
       style="fill:none;stroke:#000000;stroke-width:0.152841;stroke-linecap:round;stroke-linejoin:round;stroke-dasharray:none"
       inkscape:transform-center-x="0.27893937"
       inkscape:transform-center-y="-0.46259013"
       d="m 166.33668,156.84528 -0.0128,4.0651 c -0.0126,0.25548 -0.0723,0.52282 -0.1938,0.7766 -0.45108,0.94202 -1.58044,1.34003 -2.52246,0.88895 -0.94204,-0.45108 -1.34003,-1.58041 -0.88895,-2.52244 0.11908,-0.2487 0.28542,-0.45945 0.46522,-0.63861 z"
       sodipodi:nodetypes="ccssscc" />
    <path
       id="path10"
       style="fill:none;stroke:#000000;stroke-width:0.152841;stroke-linecap:round;stroke-linejoin:round;stroke-dasharray:none"
       inkscape:transform-center-x="0.27893937"
       inkscape:transform-center-y="-0.46259013"
       d="m 155.75334,156.84528 -0.0128,4.0651 c -0.0126,0.25548 -0.0723,0.52282 -0.1938,0.7766 -0.45108,0.94202 -1.58044,1.34003 -2.52246,0.88895 -0.94204,-0.45108 -1.34003,-1.58041 -0.88895,-2.52244 0.11908,-0.2487 0.28542,-0.45945 0.46522,-0.63861 z"
       sodipodi:nodetypes="ccssscc" />
    <path
       id="path11"
       style="fill:none;stroke:#000000;stroke-width:0.152841;stroke-linecap:round;stroke-linejoin:round;stroke-dasharray:none"
       inkscape:transform-center-x="0.27893937"
       inkscape:transform-center-y="-0.46259013"
       d="m 145.17,156.84528 -0.0128,4.0651 c -0.0126,0.25548 -0.0723,0.52282 -0.1938,0.7766 -0.45108,0.94202 -1.58044,1.34003 -2.52246,0.88895 -0.94204,-0.45108 -1.34003,-1.58041 -0.88895,-2.52244 0.11908,-0.2487 0.28542,-0.45945 0.46522,-0.63861 z"
       sodipodi:nodetypes="ccssscc" />
    <path
       id="path12"
       style="fill:none;stroke:#000000;stroke-width:0.152841;stroke-linecap:round;stroke-linejoin:round;stroke-dasharray:none"
       inkscape:transform-center-x="0.27893937"
       inkscape:transform-center-y="-0.46259013"
       d="m 134.58666,156.84528 -0.0128,4.0651 c -0.0126,0.25548 -0.0723,0.52282 -0.1938,0.7766 -0.45108,0.94202 -1.58044,1.34003 -2.52246,0.88895 -0.94204,-0.45108 -1.34003,-1.58041 -0.88895,-2.52244 0.11908,-0.2487 0.28542,-0.45945 0.46522,-0.63861 z"
       sodipodi:nodetypes="ccssscc" />
    <path
       id="path14"
       style="fill:none;stroke:#000000;stroke-width:0.152841;stroke-linecap:round;stroke-linejoin:round;stroke-dasharray:none"
       inkscape:transform-center-x="0.27893937"
       inkscape:transform-center-y="-0.46259013"
       d="m 172.15749,163.72444 -0.0128,4.0651 c -0.0126,0.25548 -0.0723,0.52282 -0.1938,0.7766 -0.45108,0.94202 -1.58044,1.34003 -2.52246,0.88895 -0.94204,-0.45108 -1.34003,-1.58041 -0.88895,-2.52244 0.11908,-0.2487 0.28542,-0.45945 0.46522,-0.63861 z"
       sodipodi:nodetypes="ccssscc" />
    <path
       id="path15"
       style="fill:none;stroke:#000000;stroke-width:0.152841;stroke-linecap:round;stroke-linejoin:round;stroke-dasharray:none"
       inkscape:transform-center-x="0.27893937"
       inkscape:transform-center-y="-0.46259013"
       d="m 161.57415,163.72444 -0.0128,4.0651 c -0.0126,0.25548 -0.0723,0.52282 -0.1938,0.7766 -0.45108,0.94202 -1.58044,1.34003 -2.52246,0.88895 -0.94204,-0.45108 -1.34003,-1.58041 -0.88895,-2.52244 0.11908,-0.2487 0.28542,-0.45945 0.46522,-0.63861 z"
       sodipodi:nodetypes="ccssscc" />
    <path
       id="path16"
       style="fill:none;stroke:#000000;stroke-width:0.152841;stroke-linecap:round;stroke-linejoin:round;stroke-dasharray:none"
       inkscape:transform-center-x="0.27893937"
       inkscape:transform-center-y="-0.46259013"
       d="m 150.99081,163.72444 -0.0128,4.0651 c -0.0126,0.25548 -0.0723,0.52282 -0.1938,0.7766 -0.45108,0.94202 -1.58044,1.34003 -2.52246,0.88895 -0.94204,-0.45108 -1.34003,-1.58041 -0.88895,-2.52244 0.11908,-0.2487 0.28542,-0.45945 0.46522,-0.63861 z"
       sodipodi:nodetypes="ccssscc" />
    <path
       id="path17"
       style="fill:none;stroke:#000000;stroke-width:0.152841;stroke-linecap:round;stroke-linejoin:round;stroke-dasharray:none"
       inkscape:transform-center-x="0.27893937"
       inkscape:transform-center-y="-0.46259013"
       d="m 140.40747,163.72444 -0.0128,4.0651 c -0.0126,0.25548 -0.0723,0.52282 -0.1938,0.7766 -0.45108,0.94202 -1.58044,1.34003 -2.52246,0.88895 -0.94204,-0.45108 -1.34003,-1.58041 -0.88895,-2.52244 0.11908,-0.2487 0.28542,-0.45945 0.46522,-0.63861 z"
       sodipodi:nodetypes="ccssscc" />
    <path
       id="path18"
       style="fill:none;stroke:#000000;stroke-width:0.152841;stroke-linecap:round;stroke-linejoin:round;stroke-dasharray:none"
       inkscape:transform-center-x="0.27893937"
       inkscape:transform-center-y="-0.46259013"
       d="m 129.82413,163.72444 -0.0128,4.0651 c -0.0126,0.25548 -0.0723,0.52282 -0.1938,0.7766 -0.45108,0.94202 -1.58044,1.34003 -2.52246,0.88895 -0.94204,-0.45108 -1.34003,-1.58041 -0.88895,-2.52244 0.11908,-0.2487 0.28542,-0.45945 0.46522,-0.63861 z"
       sodipodi:nodetypes="ccssscc" />
    <path
       id="path19"
       style="fill:none;stroke:#000000;stroke-width:0.152841;stroke-linecap:round;stroke-linejoin:round;stroke-dasharray:none"
       inkscape:transform-center-x="0.27893937"
       inkscape:transform-center-y="-0.46259013"
       d="m 166.33668,170.60361 -0.0128,4.0651 c -0.0126,0.25548 -0.0723,0.52282 -0.1938,0.7766 -0.45108,0.94202 -1.58044,1.34003 -2.52246,0.88895 -0.94204,-0.45108 -1.34003,-1.58041 -0.88895,-2.52244 0.11908,-0.2487 0.28542,-0.45945 0.46522,-0.63861 z"
       sodipodi:nodetypes="ccssscc" />
    <path
       id="path20"
       style="fill:none;stroke:#000000;stroke-width:0.152841;stroke-linecap:round;stroke-linejoin:round;stroke-dasharray:none"
       inkscape:transform-center-x="0.27893937"
       inkscape:transform-center-y="-0.46259013"
       d="m 155.75334,170.60361 -0.0128,4.0651 c -0.0126,0.25548 -0.0723,0.52282 -0.1938,0.7766 -0.45108,0.94202 -1.58044,1.34003 -2.52246,0.88895 -0.94204,-0.45108 -1.34003,-1.58041 -0.88895,-2.52244 0.11908,-0.2487 0.28542,-0.45945 0.46522,-0.63861 z"
       sodipodi:nodetypes="ccssscc" />
    <path
       id="path21"
       style="fill:none;stroke:#000000;stroke-width:0.152841;stroke-linecap:round;stroke-linejoin:round;stroke-dasharray:none"
       inkscape:transform-center-x="0.27893937"
       inkscape:transform-center-y="-0.46259013"
       d="m 145.17,170.60361 -0.0128,4.0651 c -0.0126,0.25548 -0.0723,0.52282 -0.1938,0.7766 -0.45108,0.94202 -1.58044,1.34003 -2.52246,0.88895 -0.94204,-0.45108 -1.34003,-1.58041 -0.88895,-2.52244 0.11908,-0.2487 0.28542,-0.45945 0.46522,-0.63861 z"
       sodipodi:nodetypes="ccssscc" />
    <path
       id="path22"
       style="fill:none;stroke:#000000;stroke-width:0.152841;stroke-linecap:round;stroke-linejoin:round;stroke-dasharray:none"
       inkscape:transform-center-x="0.27893937"
       inkscape:transform-center-y="-0.46259013"
       d="m 134.58666,170.60361 -0.0128,4.0651 c -0.0126,0.25548 -0.0723,0.52282 -0.1938,0.7766 -0.45108,0.94202 -1.58044,1.34003 -2.52246,0.88895 -0.94204,-0.45108 -1.34003,-1.58041 -0.88895,-2.52244 0.11908,-0.2487 0.28542,-0.45945 0.46522,-0.63861 z"
       sodipodi:nodetypes="ccssscc" />
  </g>
</svg>
