<?xml version="1.0" encoding="UTF-8" standalone="no"?>
<!-- Created with Inkscape (http://www.inkscape.org/) -->

<svg
   width="80mm"
   height="80mm"
   viewBox="0 0 80 80"
   version="1.1"
   id="svg1"
   inkscape:version="1.3 (1:1.3+202307231459+0e150ed6c4)"
   sodipodi:docname="drawing_32.svg"
   xmlns:inkscape="http://www.inkscape.org/namespaces/inkscape"
   xmlns:sodipodi="http://sodipodi.sourceforge.net/DTD/sodipodi-0.dtd"
   xmlns="http://www.w3.org/2000/svg"
   xmlns:svg="http://www.w3.org/2000/svg">
  <sodipodi:namedview
     id="namedview1"
     pagecolor="#ffffff"
     bordercolor="#000000"
     borderopacity="0.25"
     inkscape:showpageshadow="2"
     inkscape:pageopacity="0.0"
     inkscape:pagecheckerboard="0"
     inkscape:deskcolor="#d1d1d1"
     inkscape:document-units="mm"
     inkscape:zoom="2"
     inkscape:cx="62.75"
     inkscape:cy="177"
     inkscape:window-width="2560"
     inkscape:window-height="1376"
     inkscape:window-x="0"
     inkscape:window-y="27"
     inkscape:window-maximized="1"
     inkscape:current-layer="layer1" />
  <defs
     id="defs1" />
  <g
     inkscape:label="Layer 1"
     inkscape:groupmode="layer"
     id="layer1"
     transform="translate(-14.779481,-17.49243)">
    <g
       id="g276" />
    <g
       id="g278"
       transform="rotate(90,150.02319,417.32394)" />
    <g
       id="g280"
       transform="rotate(180,150.02718,417.32167)" />
    <g
       id="g282"
       transform="rotate(-90,150.03116,417.31939)" />
    <path
       id="path1"
       style="fill:none;stroke:#000000;stroke-width:0.1;stroke-linecap:round;stroke-linejoin:round;stroke-dasharray:none"
       d="m 46.603826,43.327952 16.358296,0.0046 c 0.0027,0.0046 1.387322,2.402833 3.012066,5.226701 l -3.463502,2.005223 -1.864766,-3.22929 H 48.917422 l -1.86367,3.223879 -3.458491,-2.002777 z"
       sodipodi:nodetypes="ccccccccc" />
  </g>
  <path
     d="m 56.351451,40.011086 -3.008326,-5.229318 -3.472515,1.994337 1.860078,3.22386 -5.864249,10.157178 -3.724727,-0.0019 0.0038,4.00681 6.034417,0.0024 c 0,0 8.165069,-14.142321 8.171499,-14.153442 z"
     style="fill:none;stroke:#000000;stroke-width:0.1;stroke-linecap:round;stroke-linejoin:round;stroke-dasharray:none"
     id="path43"
     sodipodi:nodetypes="ccccccccc" />
  <path
     d="m 29.510655,58.17175 -4.188643,-7.237949 -3.457142,2.009806 5.332095,9.235369 25.610276,1.16e-4 c 0,0 2.52586,-4.374923 5.333008,-9.238337 l -3.467752,-1.997116 -4.17883,7.228169 z"
     style="fill:none;stroke:#000000;stroke-width:0.1;stroke-linecap:round;stroke-linejoin:round;stroke-dasharray:none"
     id="path45"
     sodipodi:nodetypes="ccccccccc" />
  <path
     d="m 42.147258,66.18827 -0.0067,4.005884 15.293981,-4.95e-4 c 0,0 17.368139,-30.082487 17.400227,-30.13809 0,0 -3.640637,-6.416922 -7.613447,-13.300668 l -3.475914,2.005189 6.468526,11.284358 c -0.02566,0.04448 -15.092966,26.141927 -15.092966,26.141927 z"
     style="fill:none;stroke:#000000;stroke-width:0.1;stroke-linecap:round;stroke-linejoin:round;stroke-dasharray:none"
     id="path46"
     sodipodi:nodetypes="ccccccccc" />
  <path
     style="fill:none;stroke:#000000;stroke-width:0.1;stroke-linecap:round;stroke-linejoin:round;stroke-dasharray:none"
     d="m 37.868453,50.154519 -3.730515,0.0026 -5.864248,-10.157178 1.857029,-3.224877 -3.467124,-2.003712 -3.017153,5.228589 8.177845,14.164502 6.040087,0.0025 z m -0.0095,20.038447 -15.289172,5.19e-4 L 5.1376183,39.999791 12.7789,26.754289 l 3.480642,2.011476 c -3.385675,5.849116 -6.47148,11.193899 -6.4831568,11.21405 l 15.1070058,26.206444 12.978505,0.0074 z"
     id="path52"
     sodipodi:nodetypes="cccccccccccccccccc" />
  <path
     style="fill:none;stroke:#000000;stroke-width:0.1;stroke-linecap:round;stroke-linejoin:round;stroke-dasharray:none"
     d="m 65.612292,40.000197 1.16e-4,-2.32e-4 c 0,0 -12.766592,-22.112286 -12.78588,-22.145648 l -10.688929,-0.02992 0.002,4.005853 8.366876,0.02023 c 0.01286,0.02224 10.473058,18.159095 10.473058,18.159095 -0.0056,0.0096 -1.952744,3.382232 -4.156088,7.227504 l 3.466002,2.001883 c 2.79091,-4.851826 5.307608,-9.208379 5.322795,-9.238764 z"
     id="path53"
     sodipodi:nodetypes="sccccccccs" />
  <path
     style="fill:none;stroke:#000000;stroke-width:0.1;stroke-linecap:round;stroke-linejoin:round;stroke-dasharray:none"
     d="m 23.194644,47.240861 -4.162607,-7.263137 c 0.0128,-0.02224 10.478734,-18.149486 10.478734,-18.149486 l 8.349368,0.0011 0.0057,-4.006246 -10.668715,-0.0022 c 0,0 -12.766592,22.112287 -12.785879,22.145649 l 5.312169,9.265483 z"
     id="path55"
     sodipodi:nodetypes="ccccccccc" />
  <path
     style="fill:none;stroke:#000000;stroke-width:0.1;stroke-linecap:round;stroke-linejoin:round;stroke-dasharray:none"
     d="m 55.13255,13.833821 -30.248927,-0.02015 -6.47943,11.24305 -3.480479,-2.009795 7.646335,-13.2406546 34.879208,0.025578 c 0.01475,0.025578 3.671762,6.3597276 7.630442,13.2156946 l -3.467798,2.001933 C 58.229697,19.198275 55.144168,13.853972 55.13255,13.833821 Z"
     id="path57"
     sodipodi:nodetypes="ccccccccc" />
</svg>
