<?xml version="1.0" encoding="UTF-8" standalone="no"?>
<!-- Created with Inkscape (http://www.inkscape.org/) -->

<svg
   width="80.000122mm"
   height="80.000122mm"
   viewBox="0 0 80.000122 80.000123"
   version="1.1"
   id="svg1"
   inkscape:version="1.3 (1:1.3+202307231459+0e150ed6c4)"
   sodipodi:docname="drawing_19.svg"
   xml:space="preserve"
   xmlns:inkscape="http://www.inkscape.org/namespaces/inkscape"
   xmlns:sodipodi="http://sodipodi.sourceforge.net/DTD/sodipodi-0.dtd"
   xmlns="http://www.w3.org/2000/svg"
   xmlns:svg="http://www.w3.org/2000/svg"><sodipodi:namedview
     id="namedview1"
     pagecolor="#ffffff"
     bordercolor="#000000"
     borderopacity="0.25"
     inkscape:showpageshadow="2"
     inkscape:pageopacity="0.0"
     inkscape:pagecheckerboard="0"
     inkscape:deskcolor="#d1d1d1"
     inkscape:document-units="mm"
     inkscape:zoom="2"
     inkscape:cx="185.25"
     inkscape:cy="58"
     inkscape:window-width="2560"
     inkscape:window-height="1376"
     inkscape:window-x="0"
     inkscape:window-y="0"
     inkscape:window-maximized="1"
     inkscape:current-layer="layer1" /><defs
     id="defs1" /><g
     inkscape:label="Layer 1"
     inkscape:groupmode="layer"
     id="layer1"
     transform="translate(-14.779418,-107.45071)"><g
       id="g276" /><g
       id="g278"
       transform="rotate(90,150.02319,417.32394)" /><g
       id="g280"
       transform="rotate(180,150.02718,417.32167)" /><g
       id="g282"
       transform="rotate(-90,150.03116,417.31939)" /><path
       id="rect5"
       style="fill:none;stroke:#1a1a1a;stroke-width:0.1;stroke-linecap:round;stroke-linejoin:round"
       d="m 89.819183,112.41106 -21.791407,-6.7e-4 c 10.028837,3.79308 18.003741,11.76949 21.793453,21.79688 z"
       sodipodi:nodetypes="cccc" /><path
       id="path37"
       style="fill:none;stroke:#000000;stroke-width:0.1;stroke-linecap:round;stroke-linejoin:round"
       d="m 68.04273,182.4895 21.776453,9.6e-4 -0.0052,-21.76559 C 86.012187,170.7392 78.048399,178.69831 68.04273,182.4895 Z m -48.297936,-21.7687 -0.005,21.76966 21.765903,-0.004 C 31.500459,178.68846 23.543809,170.73245 19.744794,160.7208 Z m 21.80328,-48.31814 -21.808297,0.008 -0.0036,21.79972 c 3.792082,-10.04021 11.785113,-18.02795 21.81188,-21.80812 z"
       sodipodi:nodetypes="cccccccccccc" /><path
       id="circle37"
       style="fill:none;stroke:#000000;stroke-width:0.1;stroke-linecap:round;stroke-linejoin:round"
       d="m 60.426415,115.4937 -0.875124,4.91387 c 11.351403,1.98145 20.302588,10.93859 22.280586,22.28952 l 4.916007,-0.86297 C 84.416048,128.42566 73.844079,117.84106 60.426415,115.4937 Z"
       sodipodi:nodetypes="ccccc" /><path
       id="circle38"
       style="fill:none;stroke:#000000;stroke-width:0.1;stroke-linecap:round;stroke-linejoin:round"
       d="m 50.00821,174.49895 -0.835184,4.93059 c -13.408088,-2.32515 -24.013598,-12.91487 -26.35998,-26.3363 l 4.927987,-0.84917 c 1.99194,11.33861 10.931843,20.27043 22.267177,22.25488 z m -0.0041,-54.09076 -0.856202,-4.91717 C 35.73935,117.82346 25.157789,128.40236 22.813234,141.8217 l 4.921857,0.8841 c 1.962097,-11.34984 10.91271,-20.31225 22.269019,-22.29761 z"
       sodipodi:nodetypes="cccccccccc" /><path
       id="ellipse40"
       style="fill:none;stroke:#000000;stroke-width:0.1;stroke-linecap:round;stroke-linejoin:round"
       d="m 56.948268,135.1576 -0.861347,4.90636 c 3.103351,0.5429 5.547606,2.9924 6.088345,6.0962 l 4.906682,-0.85941 c -0.897164,-5.16296 -4.969763,-9.24188 -10.13368,-10.14315 z"
       sodipodi:nodetypes="ccccc" /><path
       id="circle41"
       style="fill:none;stroke:#000000;stroke-width:0.1;stroke-linecap:round;stroke-linejoin:round"
       d="m 53.475772,154.8482 -0.852931,4.90621 c -5.15507,-0.89806 -9.232582,-4.96807 -10.137097,-10.12586 l 4.906045,-0.85352 c 0.553798,3.09308 2.993158,5.52523 6.083983,6.07317 z m -8.72e-4,-14.78465 -0.867418,-4.90517 c -5.159997,0.90357 -9.227239,4.9755 -10.123138,10.13756 l 4.903745,0.8665 c 0.535295,-3.10633 2.982723,-5.5582 6.086811,-6.09889 z"
       sodipodi:nodetypes="cccccccccc" /><path
       id="ellipse41"
       style="fill:none;stroke:#000000;stroke-width:0.1;stroke-linecap:round;stroke-linejoin:round"
       d="m 57.303371,147.45078 a 2.5238912,2.5238912 0 0 1 -2.523891,2.52389 2.5238912,2.5238912 0 0 1 -2.523891,-2.52389 2.5238912,2.5238912 0 0 1 2.523891,-2.5239 2.5238912,2.5238912 0 0 1 2.523891,2.5239 z" /><g
       id="g44"
       transform="rotate(45,54.783695,147.45684)"><path
         id="circle39"
         style="fill:none;stroke:#000000;stroke-width:0.1;stroke-linecap:round;stroke-linejoin:round"
         d="m 58.686341,125.33293 -0.868707,4.90822 c 7.227949,1.26313 12.926018,6.96953 14.181406,14.19391 l 4.911133,-0.85199 c -1.594645,-9.28605 -8.922189,-16.63114 -18.223832,-18.25014 z"
         sodipodi:nodetypes="ccccc" /><path
         style="fill:none;stroke:#000000;stroke-width:0.1;stroke-linecap:round;stroke-linejoin:round;stroke-dasharray:none"
         d="m 51.773009,164.6739 -0.878218,4.90757 c -9.272273,-1.60403 -16.602712,-8.91621 -18.232675,-18.20526 l 4.908471,-0.87116 c 1.274814,7.23241 6.991773,12.92699 14.202422,14.16885 z"
         id="path40"
         sodipodi:nodetypes="ccccc" /><path
         style="fill:none;stroke:#000000;stroke-width:0.1;stroke-linecap:round;stroke-linejoin:round;stroke-dasharray:none"
         d="m 71.994939,150.50452 c -1.276368,7.21352 -6.968962,12.89947 -14.182201,14.16488 l 0.878789,4.90708 c 9.264417,-1.62658 16.563925,-8.91524 18.208506,-18.18557 z"
         id="path42"
         sodipodi:nodetypes="ccccc" /><path
         style="fill:none;stroke:#000000;stroke-width:0.1;stroke-linecap:round;stroke-linejoin:round;stroke-dasharray:none"
         d="m 32.657216,143.56829 c 1.603635,-9.29127 8.930078,-16.62347 18.220793,-18.23609 l 0.864557,4.9086 c -7.221146,1.26072 -12.916482,6.95813 -14.174629,14.1851 z"
         id="path43"
         sodipodi:nodetypes="ccccc" /></g><path
       style="fill:none;stroke:#000000;stroke-width:0.1;stroke-linecap:round;stroke-linejoin:round;stroke-dasharray:none"
       d="m 81.829177,152.23446 c -1.991934,11.33959 -10.940632,20.28375 -22.283211,22.26549 l 0.869149,4.92449 c 13.403133,-2.34959 23.97762,-12.91898 26.329119,-26.32147 z m -19.657011,-3.46077 c -0.554965,3.08303 -2.982478,5.5119 -6.075402,6.07201 l 0.858171,4.9052 c 5.147926,-0.91332 9.203157,-4.9647 10.122413,-10.10925 z"
       id="path44"
       sodipodi:nodetypes="cccccccccc" /></g></svg>
