<?xml version="1.0" encoding="UTF-8" standalone="no"?>
<!-- Created with Inkscape (http://www.inkscape.org/) -->

<svg
   width="80mm"
   height="80mm"
   viewBox="0 0 80 80"
   version="1.1"
   id="svg1"
   inkscape:version="1.3 (1:1.3+202307231459+0e150ed6c4)"
   sodipodi:docname="drawing_36.svg"
   xmlns:inkscape="http://www.inkscape.org/namespaces/inkscape"
   xmlns:sodipodi="http://sodipodi.sourceforge.net/DTD/sodipodi-0.dtd"
   xmlns="http://www.w3.org/2000/svg"
   xmlns:svg="http://www.w3.org/2000/svg">
  <sodipodi:namedview
     id="namedview1"
     pagecolor="#ffffff"
     bordercolor="#000000"
     borderopacity="0.25"
     inkscape:showpageshadow="2"
     inkscape:pageopacity="0.0"
     inkscape:pagecheckerboard="0"
     inkscape:deskcolor="#d1d1d1"
     inkscape:document-units="mm"
     inkscape:zoom="2"
     inkscape:cx="16.25"
     inkscape:cy="93.000001"
     inkscape:window-width="2560"
     inkscape:window-height="1376"
     inkscape:window-x="0"
     inkscape:window-y="0"
     inkscape:window-maximized="1"
     inkscape:current-layer="layer1" />
  <defs
     id="defs1" />
  <g
     inkscape:label="Layer 1"
     inkscape:groupmode="layer"
     id="layer1"
     transform="translate(-14.779481,-17.49243)">
    <rect
       style="fill:none;stroke:#1a1a1a;stroke-width:0.0998752;stroke-linecap:round;stroke-linejoin:round;stroke-dasharray:none"
       id="rect1"
       width="79.900124"
       height="79.900124"
       x="14.829418"
       y="17.542368" />
    <g
       id="g276" />
    <g
       id="g278"
       transform="rotate(90,150.02319,417.32394)" />
    <g
       id="g280"
       transform="rotate(180,150.02718,417.32167)" />
    <g
       id="g282"
       transform="rotate(-90,150.03116,417.31939)" />
    <path
       style="fill:none;stroke:#000000;stroke-width:0.1;stroke-linecap:round;stroke-linejoin:round;stroke-dasharray:none"
       d="m 81.178672,71.07785 -5.13e-4,-8.332747 -14.561913,-8.40791 -0.0019,8.33096 7.279996,4.213269 -7.28253,4.204649 0.01052,8.397103 z"
       id="path8"
       sodipodi:nodetypes="cccccccc" />
    <path
       style="fill:none;stroke:#000000;stroke-width:0.1;stroke-linecap:round;stroke-linejoin:round;stroke-dasharray:none"
       d="m 54.798633,86.311752 7.216115,-4.166819 5.06e-4,-16.814941 -7.215771,4.163834 -0.0088,8.411296 -7.282598,-4.20453 -7.266844,4.207661 z"
       id="path11"
       sodipodi:nodetypes="cccccccc" />
    <path
       style="fill:none;stroke:#000000;stroke-width:0.1;stroke-linecap:round;stroke-linejoin:round;stroke-dasharray:none"
       d="m 28.435143,71.088168 7.216628,4.16593 14.562419,-8.407033 -7.213871,-4.167124 -7.288796,4.198027 -7e-5,-8.409181 -7.277363,-4.18944 z"
       id="path12"
       sodipodi:nodetypes="cccccccc" />
    <path
       style="fill:none;stroke:#000000;stroke-width:0.1;stroke-linecap:round;stroke-linejoin:round;stroke-dasharray:none"
       d="m 28.437528,40.64988 5.12e-4,8.332747 14.561913,8.40791 0.0019,-8.330958 -7.279996,-4.213269 7.282528,-4.20465 -0.01052,-8.397103 z"
       id="path13"
       sodipodi:nodetypes="cccccccc" />
    <path
       style="fill:none;stroke:#000000;stroke-width:0.1;stroke-linecap:round;stroke-linejoin:round;stroke-dasharray:none"
       d="m 54.792318,25.432069 -7.216115,4.166818 -5.07e-4,16.814941 7.215771,-4.163834 0.0088,-8.411296 7.282598,4.20453 7.266845,-4.207662 z"
       id="path14"
       sodipodi:nodetypes="cccccccc" />
    <path
       style="fill:none;stroke:#000000;stroke-width:0.1;stroke-linecap:round;stroke-linejoin:round;stroke-dasharray:none"
       d="m 81.152336,40.648074 -7.216628,-4.165931 -14.562419,8.407031 7.213871,4.167125 7.288796,-4.198027 6.9e-5,8.40918 7.277365,4.189441 z"
       id="path15"
       sodipodi:nodetypes="cccccccc" />
  </g>
</svg>
