<?xml version="1.0" encoding="UTF-8" standalone="no"?>
<!-- Created with Inkscape (http://www.inkscape.org/) -->

<svg
   width="80mm"
   height="80mm"
   viewBox="0 0 80 80"
   version="1.1"
   id="svg1"
   inkscape:version="1.3 (1:1.3+202307231459+0e150ed6c4)"
   sodipodi:docname="drawing_26.svg"
   xml:space="preserve"
   xmlns:inkscape="http://www.inkscape.org/namespaces/inkscape"
   xmlns:sodipodi="http://sodipodi.sourceforge.net/DTD/sodipodi-0.dtd"
   xmlns="http://www.w3.org/2000/svg"
   xmlns:svg="http://www.w3.org/2000/svg"><sodipodi:namedview
     id="namedview1"
     pagecolor="#ffffff"
     bordercolor="#000000"
     borderopacity="0.25"
     inkscape:showpageshadow="2"
     inkscape:pageopacity="0.0"
     inkscape:pagecheckerboard="0"
     inkscape:deskcolor="#d1d1d1"
     inkscape:document-units="mm"
     inkscape:zoom="2.8284271"
     inkscape:cx="98.46462"
     inkscape:cy="161.22035"
     inkscape:window-width="2560"
     inkscape:window-height="1376"
     inkscape:window-x="0"
     inkscape:window-y="0"
     inkscape:window-maximized="1"
     inkscape:current-layer="layer1" /><defs
     id="defs1" /><g
     inkscape:label="Layer 1"
     inkscape:groupmode="layer"
     id="layer1"
     transform="translate(-110.02945,-377.32567)"><g
       id="g276" /><g
       id="g278"
       transform="rotate(90,150.02319,417.32394)" /><g
       id="g280"
       transform="rotate(180,150.02718,417.32167)" /><g
       id="g282"
       transform="rotate(-90,150.03116,417.31939)" /><path
       style="fill:none;stroke:#000000;stroke-width:0.109573;stroke-linecap:round;stroke-linejoin:round;stroke-dasharray:none"
       d="m 167.347,397.54689 c 0.002,-1.08286 1.13968,-0.95388 1.63697,-0.33343 3.96638,4.94866 3.89119,4.03712 7.97081,7.82949 3.82555,3.55621 5.0929,6.90004 4.55079,12.095 -0.15318,1.46788 -0.97345,5.86587 -2.13286,6.77904 -0.78209,0.61598 -1.67203,0.10966 -1.81095,-0.50107 -1.58625,-6.97312 -8.35459,-13.01225 -8.39554,-9.63145 -0.0803,6.62977 1.7e-4,25.33186 1.7e-4,25.33186 -0.0263,3.25389 -3.17126,6.62468 -7.99857,8.20162 -5.87832,1.92029 -12.0253,0.45335 -13.72963,-3.27648 -1.70434,-3.72983 1.67936,-8.31014 7.55768,-10.23043 4.75483,-1.55325 9.68541,-0.89035 12.29208,1.39665 z"
       id="path233"
       sodipodi:nodetypes="ssssssscssscs" /><path
       style="fill:none;stroke:#000000;stroke-width:0.109573;stroke-linecap:round;stroke-linejoin:round;stroke-dasharray:none"
       d="m 139.03695,387.68996 c 0.002,-1.08288 1.13967,-0.95388 1.63697,-0.33343 3.96638,4.94865 3.89119,4.0371 7.97081,7.82948 3.82555,3.5562 5.0929,6.90005 4.5508,12.09501 -0.15319,1.46786 -0.97346,5.86587 -2.13287,6.77904 -0.78208,0.61597 -1.67203,0.10966 -1.81095,-0.50108 -1.58626,-6.97312 -8.35459,-13.01224 -8.39554,-9.63145 -0.0803,6.62977 1.7e-4,25.33185 1.7e-4,25.33185 -0.0263,3.2539 -3.17127,6.6247 -7.99856,8.20163 -5.87833,1.92028 -12.0253,0.45335 -13.72964,-3.27647 -1.70434,-3.72984 1.67935,-8.31015 7.55768,-10.23043 4.75483,-1.55326 9.68542,-0.89036 12.29208,1.39664 z"
       id="path234"
       sodipodi:nodetypes="ssssssscssscs" /></g></svg>
