<?xml version="1.0" encoding="UTF-8" standalone="no"?>
<!-- Created with Inkscape (http://www.inkscape.org/) -->

<svg
   width="80mm"
   height="80mm"
   viewBox="0 0 80 80"
   version="1.1"
   id="svg1"
   inkscape:version="1.3 (1:1.3+202307231459+0e150ed6c4)"
   sodipodi:docname="drawing_22.svg"
   xml:space="preserve"
   xmlns:inkscape="http://www.inkscape.org/namespaces/inkscape"
   xmlns:sodipodi="http://sodipodi.sourceforge.net/DTD/sodipodi-0.dtd"
   xmlns="http://www.w3.org/2000/svg"
   xmlns:svg="http://www.w3.org/2000/svg"><sodipodi:namedview
     id="namedview1"
     pagecolor="#ffffff"
     bordercolor="#000000"
     borderopacity="0.25"
     inkscape:showpageshadow="2"
     inkscape:pageopacity="0.0"
     inkscape:pagecheckerboard="0"
     inkscape:deskcolor="#d1d1d1"
     inkscape:document-units="mm"
     inkscape:zoom="2.8284271"
     inkscape:cx="146.19433"
     inkscape:cy="158.39192"
     inkscape:window-width="2560"
     inkscape:window-height="1376"
     inkscape:window-x="0"
     inkscape:window-y="0"
     inkscape:window-maximized="1"
     inkscape:current-layer="layer1" /><defs
     id="defs1" /><g
     inkscape:label="Layer 1"
     inkscape:groupmode="layer"
     id="layer1"
     transform="translate(-110.02945,-197.40917)"><g
       id="g276" /><g
       id="g278"
       transform="rotate(90,150.02319,417.32394)" /><g
       id="g280"
       transform="rotate(180,150.02718,417.32167)" /><g
       id="g282"
       transform="rotate(-90,150.03116,417.31939)" /><path
       id="path126"
       style="fill:none;stroke:#1a1a1a;stroke-width:0.0980965;stroke-linecap:round;stroke-linejoin:round"
       d="m 173.84432,203.0334 10.57601,10.57469 -0.004,5.28761 -15.86455,-15.86331 z m 10.55794,0.003 -5.26055,0.003 5.27673,5.27533 z m 8.2e-4,47.6197 -21.11882,21.12158 -5.29454,0.003 26.41948,-26.42219 z m -0.0114,10.59498 -10.52783,10.53066 -5.29864,0.007 15.82988,-15.83268 z m 0.0105,10.53079 -5.25605,0.009 5.25156,-5.25443 z m -47.60493,-0.002 -21.13661,-21.1191 -0.004,-5.29604 26.42638,26.40954 z m -10.57719,0.007 -10.55879,-10.53992 -0.001,-5.29399 15.84283,15.82462 z m -10.56338,-0.004 -10e-4,-5.24879 5.26708,5.24752 z m -0.004,-47.58299 21.15042,-21.16247 5.29105,6.8e-4 -26.44369,26.45653 z m 0.004,-10.58873 10.56783,-10.57828 5.28884,0.003 -15.86652,15.87777 z m 4.9e-4,-10.57375 5.26932,0.002 -5.27333,5.28295 z"
       sodipodi:nodetypes="ccccccccccccccccccccccccccccccccccccccccccccccccccc" /><path
       style="fill:none;stroke:#000000;stroke-width:0.1;stroke-linecap:round;stroke-linejoin:round;stroke-dasharray:none"
       d="m 163.25785,218.9177 2.64635,-2.65247 -13.22512,-13.23015 -5.28702,-0.004 -13.2144,13.24125 2.66718,2.66317 13.18556,-13.239 z"
       id="path132"
       sodipodi:nodetypes="cccccccc" /><path
       style="fill:none;stroke:#000000;stroke-width:0.1;stroke-linecap:round;stroke-linejoin:round;stroke-dasharray:none"
       d="m 157.97758,203.04184 5.28731,-0.004 21.1432,21.14204 -0.006,5.28595 z"
       id="path134"
       sodipodi:nodetypes="ccccc" /><path
       style="fill:none;stroke:#000000;stroke-width:0.1;stroke-linecap:round;stroke-linejoin:round;stroke-dasharray:none"
       d="m 163.32828,255.96911 -13.27165,13.23773 -13.2548,-13.26422 -2.62174,2.64087 13.1963,13.19981 0.0152,-10e-4 5.31735,-0.0126 13.21597,-13.18985 z"
       id="path139"
       sodipodi:nodetypes="ccccccccc" /><g
       id="g174"><path
         style="fill:none;stroke:#000000;stroke-width:0.1;stroke-linecap:round;stroke-linejoin:round;stroke-dasharray:none"
         d="m 171.22381,242.75562 5.27979,-5.33733 -5.27372,-5.27016 -2.65378,2.71191 2.64797,2.57277 -2.64422,2.6769 z"
         id="path129"
         sodipodi:nodetypes="ccccccc" /><path
         style="fill:none;stroke:#000000;stroke-width:0.1;stroke-linecap:round;stroke-linejoin:round;stroke-dasharray:none"
         d="m 150.06686,210.96685 -5.26759,5.32366 2.57722,2.61832 2.72516,-2.60902 2.60818,2.63504 2.60526,-2.63601 z"
         id="path131"
         sodipodi:nodetypes="ccccccc" /><path
         style="fill:none;stroke:#000000;stroke-width:0.1;stroke-linecap:round;stroke-linejoin:round;stroke-dasharray:none"
         d="m 147.40621,255.89919 2.65352,2.68116 2.67071,-2.62097 2.61317,2.63147 -5.28191,5.30013 -5.29887,-5.33149 z m -15.84593,-15.82021 -2.63334,2.65341 -5.32796,-5.28197 5.24177,-5.35488 2.67935,2.69111 -2.58841,2.65391 z"
         id="path142"
         sodipodi:nodetypes="cccccccccccccc" /></g><path
       style="fill:none;stroke:#000000;stroke-width:0.1;stroke-linecap:round;stroke-linejoin:round;stroke-dasharray:none"
       d="m 118.30721,237.38249 13.20999,13.28976 -2.59747,2.58731 -13.25766,-13.18273 -0.006,-5.29629 13.24075,-13.22481 2.61514,2.6286 z"
       id="path156"
       sodipodi:nodetypes="cccccccc" /><path
       style="fill:none;stroke:#000000;stroke-width:0.1;stroke-linecap:round;stroke-linejoin:round;stroke-dasharray:none"
       d="m 150.06505,248.02568 -10.57973,-10.59035 10.56942,-10.59147 10.57122,10.56584 z"
       id="path164"
       sodipodi:nodetypes="ccccc" /><path
       style="fill:none;stroke:#000000;stroke-width:0.1;stroke-linecap:round;stroke-linejoin:round;stroke-dasharray:none"
       d="m 184.3916,240.08396 0.0202,-5.31717 -13.22191,-13.22888 -2.60834,2.64108 13.20333,13.26965 -13.1908,13.23823 2.57146,2.65232 z"
       id="path169"
       sodipodi:nodetypes="cccccccc" /><path
       style="fill:none;stroke:#000000;stroke-width:0.1;stroke-linecap:round;stroke-linejoin:round;stroke-dasharray:none"
       d="m 155.96431,250.87503 7.50743,-0.0407 -0.003,-7.45565 -3.79412,0.0411 0.0532,3.69162 -3.7626,0.0231 z"
       id="path174"
       sodipodi:nodetypes="ccccccc" /><path
       style="fill:none;stroke:#000000;stroke-width:0.1;stroke-linecap:round;stroke-linejoin:round;stroke-dasharray:none"
       d="m 163.48214,224.02009 -7.48915,0.0396 -0.0291,3.6738 3.77184,0.0821 -0.019,3.70752 3.70614,-0.0217 z"
       id="path175"
       sodipodi:nodetypes="ccccccc" /><path
       style="fill:none;stroke:#000000;stroke-width:0.1;stroke-linecap:round;stroke-linejoin:round;stroke-dasharray:none"
       d="m 140.39395,231.51935 -3.7383,0.0142 -0.0325,-7.50235 7.49296,-0.08 -0.008,3.79749 -3.70688,0.0463 z"
       id="path176"
       sodipodi:nodetypes="ccccccc" /><path
       style="fill:none;stroke:#000000;stroke-width:0.1;stroke-linecap:round;stroke-linejoin:round;stroke-dasharray:none"
       d="m 140.41215,243.32735 -0.0195,3.77219 3.74178,0.0352 -0.0129,3.70852 -7.48263,0.0129 0.0231,-7.5168 z"
       id="path177"
       sodipodi:nodetypes="ccccccc" /></g></svg>
