<?xml version="1.0" encoding="UTF-8" standalone="no"?>
<!-- Created with Inkscape (http://www.inkscape.org/) -->

<svg
   width="80mm"
   height="80mm"
   viewBox="0 0 80 80"
   version="1.1"
   id="svg1"
   inkscape:version="1.3 (1:1.3+202307231459+0e150ed6c4)"
   sodipodi:docname="drawing_38.svg"
   xmlns:inkscape="http://www.inkscape.org/namespaces/inkscape"
   xmlns:sodipodi="http://sodipodi.sourceforge.net/DTD/sodipodi-0.dtd"
   xmlns="http://www.w3.org/2000/svg"
   xmlns:svg="http://www.w3.org/2000/svg">
  <sodipodi:namedview
     id="namedview1"
     pagecolor="#ffffff"
     bordercolor="#000000"
     borderopacity="0.25"
     inkscape:showpageshadow="2"
     inkscape:pageopacity="0.0"
     inkscape:pagecheckerboard="0"
     inkscape:deskcolor="#d1d1d1"
     inkscape:document-units="mm"
     inkscape:zoom="2"
     inkscape:cx="25"
     inkscape:cy="128.5"
     inkscape:window-width="2560"
     inkscape:window-height="1376"
     inkscape:window-x="0"
     inkscape:window-y="27"
     inkscape:window-maximized="1"
     inkscape:current-layer="layer1" />
  <defs
     id="defs1" />
  <g
     inkscape:label="Layer 1"
     inkscape:groupmode="layer"
     id="layer1"
     transform="translate(-14.779481,-17.49243)">
    <g
       id="g276" />
    <g
       id="g278"
       transform="rotate(90,150.02319,417.32394)" />
    <g
       id="g280"
       transform="rotate(180,150.02718,417.32167)" />
    <g
       id="g282"
       transform="rotate(-90,150.03116,417.31939)" />
    <g
       id="g13"
       transform="rotate(30,54.77948,57.49243)">
      <path
         d="m 82.589299,73.522159 -0.0021,-6.701083 -5.812487,-3.355463 0.0028,-13.4056 -5.811405,3.355328 -7.05e-4,13.395447 z"
         style="fill:none;stroke:#000000;stroke-width:0.1;stroke-linecap:round;stroke-linejoin:round;stroke-dasharray:none"
         id="path3"
         sodipodi:nodetypes="ccccccc" />
      <path
         d="m 54.795925,89.584873 5.802259,-3.35236 -3.28e-4,-6.711494 11.610991,-6.700376 -5.811503,-3.355161 -11.60115,6.697113 z"
         style="fill:none;stroke:#000000;stroke-width:0.1;stroke-linecap:round;stroke-linejoin:round;stroke-dasharray:none"
         id="path9"
         sodipodi:nodetypes="ccccccc" />
      <path
         d="m 26.99008,73.581857 5.804357,3.348722 5.81216,-3.35603 11.608192,6.705225 -9.9e-5,-6.710488 -11.600444,-6.698335 z"
         style="fill:none;stroke:#000000;stroke-width:0.1;stroke-linecap:round;stroke-linejoin:round;stroke-dasharray:none"
         id="path10"
         sodipodi:nodetypes="ccccccc" />
      <path
         d="m 26.969661,41.47378 0.0021,6.701081 5.812487,3.355464 -0.0028,13.4056 5.811404,-3.355329 7.05e-4,-13.395446 z"
         style="fill:none;stroke:#000000;stroke-width:0.1;stroke-linecap:round;stroke-linejoin:round;stroke-dasharray:none"
         id="path11"
         sodipodi:nodetypes="ccccccc" />
      <path
         d="m 54.745531,25.399987 -5.802257,3.352359 3.27e-4,6.711494 -11.610991,6.700376 5.811502,3.355158 11.60115,-6.697111 z"
         style="fill:none;stroke:#000000;stroke-width:0.1;stroke-linecap:round;stroke-linejoin:round;stroke-dasharray:none"
         id="path12"
         sodipodi:nodetypes="ccccccc" />
      <path
         d="M 82.589257,41.398053 76.7849,38.04933 70.972741,41.405362 59.36455,34.700136 l 9.8e-5,6.710487 11.600444,6.698335 z"
         style="fill:none;stroke:#000000;stroke-width:0.1;stroke-linecap:round;stroke-linejoin:round;stroke-dasharray:none"
         id="path13"
         sodipodi:nodetypes="ccccccc" />
    </g>
  </g>
</svg>
