<?xml version="1.0" encoding="UTF-8" standalone="no"?>
<!-- Created with Inkscape (http://www.inkscape.org/) -->

<svg
   width="80mm"
   height="80mm"
   viewBox="0 0 80 80"
   version="1.1"
   id="svg1"
   inkscape:version="1.3 (1:1.3+202307231459+0e150ed6c4)"
   sodipodi:docname="drawing_17.svg"
   xml:space="preserve"
   xmlns:inkscape="http://www.inkscape.org/namespaces/inkscape"
   xmlns:sodipodi="http://sodipodi.sourceforge.net/DTD/sodipodi-0.dtd"
   xmlns="http://www.w3.org/2000/svg"
   xmlns:svg="http://www.w3.org/2000/svg"><sodipodi:namedview
     id="namedview1"
     pagecolor="#ffffff"
     bordercolor="#000000"
     borderopacity="0.25"
     inkscape:showpageshadow="2"
     inkscape:pageopacity="0.0"
     inkscape:pagecheckerboard="0"
     inkscape:deskcolor="#d1d1d1"
     inkscape:document-units="mm"
     inkscape:zoom="2.8284271"
     inkscape:cx="200.9951"
     inkscape:cy="162.63456"
     inkscape:window-width="2560"
     inkscape:window-height="1376"
     inkscape:window-x="0"
     inkscape:window-y="0"
     inkscape:window-maximized="1"
     inkscape:current-layer="layer1" /><defs
     id="defs1" /><g
     inkscape:label="Layer 1"
     inkscape:groupmode="layer"
     id="layer1"
     transform="translate(-14.779481,-17.49243)"><g
       id="g276" /><g
       id="g278"
       transform="rotate(90,150.02319,417.32394)" /><g
       id="g280"
       transform="rotate(180,150.02718,417.32167)" /><g
       id="g282"
       transform="rotate(-90,150.03116,417.31939)" /><path
       id="rect2"
       style="fill:none;stroke:#1a1a1a;stroke-width:0.1;stroke-linecap:round;stroke-linejoin:round"
       d="m 89.819183,92.532133 -0.0046,-9.751759 c -2.923118,3.555712 -6.185077,6.820941 -9.734682,9.747351 z"
       sodipodi:nodetypes="cccc" /><path
       id="path1"
       style="fill:none;stroke:#000000;stroke-width:0.1;stroke-linecap:round;stroke-linejoin:round"
       d="m 89.591377,27.967509 c 0.137247,-1.802759 0.208127,-3.62549 0.225104,-5.486238 -1.841864,-0.02146 -3.683796,0.05093 -5.512457,0.194587 -0.163186,2.034238 -0.406821,4.042641 -0.732467,6.023341 1.981128,-0.328245 3.989263,-0.573753 6.01982,-0.73169 z"
       sodipodi:nodetypes="ccccc" /><path
       id="circle1"
       style="fill:none;stroke:#000000;stroke-width:0.1;stroke-linecap:round;stroke-linejoin:round"
       d="m 42.256435,22.452349 15.556152,0.0019 C 40.582129,29.571692 26.824374,43.348605 19.736721,60.571681 l 0.0013,-15.613366 C 25.408773,35.845531 33.114989,28.132483 42.256435,22.452349 Z"
       sodipodi:nodetypes="ccccc" /><path
       id="circle3"
       style="fill:none;stroke:#000000;stroke-width:0.1;stroke-linecap:round;stroke-linejoin:round"
       d="m 29.563832,22.452113 -9.824055,6.13e-4 -0.0043,9.833077 c 2.937816,-3.594184 6.229921,-6.889121 9.828359,-9.83369 z"
       sodipodi:nodetypes="cccc" /><path
       id="path7"
       style="fill:none;stroke:#000000;stroke-width:0.1;stroke-linecap:round;stroke-linejoin:round"
       d="m 26.01033,86.316519 c -0.329759,1.981307 -0.573601,3.991201 -0.728802,6.02562 -1.825821,0.143133 -3.673098,0.215954 -5.520406,0.194491 0.01698,-1.857781 0.08763,-3.677596 0.229297,-5.482227 2.035092,-0.162894 4.042898,-0.408612 6.019911,-0.737884 z M 78.282773,23.409206 c -0.382524,2.292133 -0.871416,4.544378 -1.46048,6.754706 C 52.8265,36.641836 33.928721,55.552054 27.475157,79.557663 25.269665,80.152519 23.015362,80.644412 20.71993,81.023241 25.579687,51.556106 48.829447,28.291799 78.282773,23.409206 Z"
       sodipodi:nodetypes="cccccccccc" /><path
       id="path8"
       style="fill:none;stroke:#000000;stroke-width:0.1;stroke-linecap:round;stroke-linejoin:round"
       d="M 32.765765,84.850112 C 56.758982,78.366153 75.646333,59.463454 82.106447,35.463019 84.318962,34.862766 86.574062,34.371095 88.8644,33.991116 84.001174,63.455335 60.755867,86.719773 31.300449,91.608523 c 0.376812,-2.291722 0.865997,-4.545248 1.465316,-6.758411 z"
       sodipodi:nodetypes="ccccc" /><path
       id="path10"
       style="fill:none;stroke:#000000;stroke-width:0.1;stroke-linecap:round;stroke-linejoin:round"
       d="m 51.852868,92.532406 15.575039,1.14e-4 C 76.489311,86.857519 84.174492,79.160093 89.827276,70.085513 L 89.807924,54.547404 C 82.702002,71.706656 68.99526,85.424022 51.852868,92.532406 Z"
       sodipodi:nodetypes="ccccc" /><path
       id="path14"
       style="fill:none;stroke:#000000;stroke-width:0.1;stroke-linecap:round;stroke-linejoin:round"
       d="M 35.434292,76.879428 C 42.536844,59.290299 56.572991,45.245986 74.152716,38.128118 67.050768,55.715102 53.016476,69.763151 35.434292,76.879428 Z"
       sodipodi:nodetypes="ccc" /></g></svg>
