<?xml version="1.0" encoding="UTF-8" standalone="no"?>
<!-- Created with Inkscape (http://www.inkscape.org/) -->

<svg
   width="80mm"
   height="80mm"
   viewBox="0 0 80 80"
   version="1.1"
   id="svg1"
   inkscape:version="1.3 (1:1.3+202307231459+0e150ed6c4)"
   sodipodi:docname="drawing_28.svg"
   xml:space="preserve"
   xmlns:inkscape="http://www.inkscape.org/namespaces/inkscape"
   xmlns:sodipodi="http://sodipodi.sourceforge.net/DTD/sodipodi-0.dtd"
   xmlns="http://www.w3.org/2000/svg"
   xmlns:svg="http://www.w3.org/2000/svg"><sodipodi:namedview
     id="namedview1"
     pagecolor="#ffffff"
     bordercolor="#000000"
     borderopacity="0.25"
     inkscape:showpageshadow="2"
     inkscape:pageopacity="0.0"
     inkscape:pagecheckerboard="0"
     inkscape:deskcolor="#d1d1d1"
     inkscape:document-units="mm"
     inkscape:zoom="2.8284271"
     inkscape:cx="72.301669"
     inkscape:cy="98.641396"
     inkscape:window-width="2560"
     inkscape:window-height="1376"
     inkscape:window-x="0"
     inkscape:window-y="0"
     inkscape:window-maximized="1"
     inkscape:current-layer="layer1" /><defs
     id="defs1" /><g
     inkscape:label="Layer 1"
     inkscape:groupmode="layer"
     id="layer1"
     transform="translate(-110.02945,-467.28383)"><g
       id="g276" /><g
       id="g278"
       transform="rotate(90,150.02319,417.32394)" /><g
       id="g280"
       transform="rotate(180,150.02718,417.32167)" /><g
       id="g282"
       transform="rotate(-90,150.03116,417.31939)" /><g
       id="g620"
       transform="translate(3.2775879e-6,5.0695126)"><path
         id="path615"
         style="fill:none;stroke:#000000;stroke-width:0.1;stroke-linecap:round;stroke-linejoin:round"
         d="m 168.1522,494.91858 a 18.122753,18.122753 0 0 1 -18.12275,18.12275 18.122753,18.122753 0 0 1 -18.12275,-18.12275 18.122753,18.122753 0 0 1 18.12275,-18.12275 18.122753,18.122753 0 0 1 18.12275,18.12275 z" /><path
         id="rect615"
         style="fill:none;stroke:#000000;stroke-width:0.1;stroke-linecap:round;stroke-linejoin:round"
         d="m 143.49341,514.35724 h 13.07207 c 0.45262,0 0.81701,0.36438 0.81701,0.817 0,0.45262 -0.36439,0.81701 -0.81701,0.81701 h -13.07207 c -0.45262,0 -0.817,-0.36439 -0.817,-0.81701 0,-0.45262 0.36438,-0.817 0.817,-0.817 z" /><path
         id="rect616"
         style="fill:none;stroke:#000000;stroke-width:0.1;stroke-linecap:round;stroke-linejoin:round"
         d="m 143.49341,516.68555 h 13.07207 c 0.45262,0 0.81701,0.36438 0.81701,0.817 0,0.45262 -0.36439,0.81701 -0.81701,0.81701 h -13.07207 c -0.45262,0 -0.817,-0.36439 -0.817,-0.81701 0,-0.45262 0.36438,-0.817 0.817,-0.817 z" /><path
         id="rect617"
         style="fill:none;stroke:#000000;stroke-width:0.1;stroke-linecap:round;stroke-linejoin:round"
         d="m 143.49341,519.01385 h 13.07207 c 0.45262,0 0.81701,0.36439 0.81701,0.81701 0,0.45262 -0.36439,0.817 -0.81701,0.817 h -13.07207 c -0.45262,0 -0.817,-0.36438 -0.817,-0.817 0,-0.45262 0.36438,-0.81701 0.817,-0.81701 z" /><path
         id="rect618"
         style="fill:none;stroke:#000000;stroke-width:0.1;stroke-linecap:round;stroke-linejoin:round"
         d="m 143.49341,521.34216 h 13.07207 c 0.45262,0 0.81701,0.36439 0.81701,0.81701 0,0.45262 -0.36439,0.817 -0.81701,0.817 h -13.07207 c -0.45262,0 -0.817,-0.36438 -0.817,-0.817 0,-0.45262 0.36438,-0.81701 0.817,-0.81701 z" /><path
         id="rect619"
         style="fill:none;stroke:#000000;stroke-width:0.1;stroke-linecap:round;stroke-linejoin:round"
         d="m 143.49341,523.67047 h 13.07207 c 0.45262,0 0.81701,0.36439 0.81701,0.81701 0,0.45262 -0.36439,0.817 -0.81701,0.817 h -13.07207 c -0.45262,0 -0.817,-0.36438 -0.817,-0.817 0,-0.45262 0.36438,-0.81701 0.817,-0.81701 z" /><path
         id="rect620"
         style="fill:none;stroke:#000000;stroke-width:0.1;stroke-linecap:round;stroke-linejoin:round"
         d="m 145.33091,525.99878 h 9.39707 c 0.45262,0 0.81701,0.36438 0.81701,0.817 v 3e-5 c 0,0.45262 -0.36439,0.817 -0.81701,0.817 h -9.39707 c -0.45263,0 -0.81701,-0.36438 -0.81701,-0.817 v -3e-5 c 0,-0.45262 0.36438,-0.817 0.81701,-0.817 z" /></g></g></svg>
