<?xml version="1.0" encoding="UTF-8" standalone="no"?>
<!-- Created with Inkscape (http://www.inkscape.org/) -->

<svg
   width="80mm"
   height="80mm"
   viewBox="0 0 80 80"
   version="1.1"
   id="svg1"
   inkscape:version="1.3 (1:1.3+202307231459+0e150ed6c4)"
   sodipodi:docname="drawing_25.svg"
   xml:space="preserve"
   xmlns:inkscape="http://www.inkscape.org/namespaces/inkscape"
   xmlns:sodipodi="http://sodipodi.sourceforge.net/DTD/sodipodi-0.dtd"
   xmlns="http://www.w3.org/2000/svg"
   xmlns:svg="http://www.w3.org/2000/svg"><sodipodi:namedview
     id="namedview1"
     pagecolor="#ffffff"
     bordercolor="#000000"
     borderopacity="0.25"
     inkscape:showpageshadow="2"
     inkscape:pageopacity="0.0"
     inkscape:pagecheckerboard="0"
     inkscape:deskcolor="#d1d1d1"
     inkscape:document-units="mm"
     inkscape:zoom="2"
     inkscape:cx="56.25"
     inkscape:cy="123.5"
     inkscape:window-width="2560"
     inkscape:window-height="1376"
     inkscape:window-x="0"
     inkscape:window-y="0"
     inkscape:window-maximized="1"
     inkscape:current-layer="layer1" /><defs
     id="defs1" /><g
     inkscape:label="Layer 1"
     inkscape:groupmode="layer"
     id="layer1"
     transform="translate(-14.779481,-377.32567)"><g
       id="g276" /><g
       id="g278"
       transform="rotate(90,150.02319,417.32394)" /><g
       id="g280"
       transform="rotate(180,150.02718,417.32167)" /><g
       id="g282"
       transform="rotate(-90,150.03116,417.31939)" /><path
       id="ellipse229"
       style="fill:none;stroke:#000000;stroke-width:0.1;stroke-linecap:round;stroke-linejoin:round;stroke-dasharray:none"
       d="m 70.941986,441.45011 c -6.009021,0 -10.880295,-3.85071 -10.880295,-8.60079 8e-6,-4.75009 4.87128,-8.60078 10.880295,-8.60078 2.725108,0 5.21622,0.79196 7.128246,2.13556 l 0.0072,-21.72545 -33.925137,7.08719 0.01741,29.27069 c 0.01178,4.86651 -4.859494,8.71723 -10.868514,8.71723 -6.009022,0 -10.880296,-3.85072 -10.880296,-8.60079 0,-4.75009 4.871274,-8.60079 10.880296,-8.60079 2.716127,0 5.1998,0.78674 7.103417,2.08901 0,0 -0.171089,-28.60487 -0.0041,-36.66557 0.01582,-0.76408 0.395195,-1.82814 1.142584,-1.98773 19.208222,-4.10164 19.19149,-4.14299 38.054935,-8.35667 0.898667,-0.20075 2.201379,0.74089 2.206801,1.6617 0.08808,15.09725 0.0088,43.5833 0.0088,43.5833 0.0088,4.74318 -4.862598,8.59389 -10.871618,8.59389 z"
       sodipodi:nodetypes="sssccccssscsssscss" /></g></svg>
