<?xml version="1.0" encoding="UTF-8" standalone="no"?>
<!-- Created with Inkscape (http://www.inkscape.org/) -->

<svg
   width="80mm"
   height="80mm"
   viewBox="0 0 80 80"
   version="1.1"
   id="svg1"
   inkscape:version="1.3 (1:1.3+202307231459+0e150ed6c4)"
   sodipodi:docname="drawing_35.svg"
   xmlns:inkscape="http://www.inkscape.org/namespaces/inkscape"
   xmlns:sodipodi="http://sodipodi.sourceforge.net/DTD/sodipodi-0.dtd"
   xmlns="http://www.w3.org/2000/svg"
   xmlns:svg="http://www.w3.org/2000/svg">
  <sodipodi:namedview
     id="namedview1"
     pagecolor="#ffffff"
     bordercolor="#000000"
     borderopacity="0.25"
     inkscape:showpageshadow="2"
     inkscape:pageopacity="0.0"
     inkscape:pagecheckerboard="0"
     inkscape:deskcolor="#d1d1d1"
     inkscape:document-units="mm"
     inkscape:zoom="2.8284271"
     inkscape:cx="128.51666"
     inkscape:cy="148.13887"
     inkscape:window-width="2560"
     inkscape:window-height="1376"
     inkscape:window-x="0"
     inkscape:window-y="0"
     inkscape:window-maximized="1"
     inkscape:current-layer="layer1" />
  <defs
     id="defs1" />
  <g
     inkscape:label="Layer 1"
     inkscape:groupmode="layer"
     id="layer1"
     transform="translate(-14.779481,-17.49243)">
    <rect
       style="fill:none;stroke:#1a1a1a;stroke-width:0.0998752;stroke-linecap:round;stroke-linejoin:round;stroke-dasharray:none"
       id="rect1"
       width="79.900124"
       height="79.900124"
       x="14.829418"
       y="17.542368" />
    <g
       id="g276" />
    <g
       id="g278"
       transform="rotate(90,150.02319,417.32394)" />
    <g
       id="g280"
       transform="rotate(180,150.02718,417.32167)" />
    <g
       id="g282"
       transform="rotate(-90,150.03116,417.31939)" />
    <path
       style="fill:none;stroke:#000000;stroke-width:0.1;stroke-linecap:round;stroke-linejoin:round;stroke-dasharray:none"
       d="m 71.765804,60.139407 3.59631,6.236592 -6.190884,10.7242 7.187974,0.0096 -3.593228,6.220053 -14.388072,-5.73e-4 z"
       id="path6"
       sodipodi:nodetypes="ccccccc" />
    <path
       style="fill:none;stroke:#000000;stroke-width:0.1;stroke-linecap:round;stroke-linejoin:round;stroke-dasharray:none"
       d="m 61.001595,73.518344 -3.602891,6.232791 -12.382872,6.38e-4 3.585673,6.229768 -7.183338,-0.0018 -7.193539,-12.460723 z"
       id="path8"
       sodipodi:nodetypes="ccccccc" />
    <path
       style="fill:none;stroke:#000000;stroke-width:0.1;stroke-linecap:round;stroke-linejoin:round;stroke-dasharray:none"
       d="m 43.991213,70.86351 -7.199203,-0.0038 -6.191987,-10.723562 -3.602301,6.220168 -3.59011,-6.221854 7.194532,-12.460149 z"
       id="path9"
       sodipodi:nodetypes="ccccccc" />
    <path
       style="fill:none;stroke:#000000;stroke-width:0.1;stroke-linecap:round;stroke-linejoin:round;stroke-dasharray:none"
       d="m 37.802917,54.851746 -3.59631,-6.236592 6.190884,-10.7242 -7.187973,-0.0096 3.593227,-6.220053 14.388073,5.73e-4 z"
       id="path10"
       sodipodi:nodetypes="ccccccc" />
    <path
       style="fill:none;stroke:#000000;stroke-width:0.1;stroke-linecap:round;stroke-linejoin:round;stroke-dasharray:none"
       d="m 48.591219,41.469491 3.602892,-6.232793 12.382871,-6.36e-4 -3.585673,-6.229768 7.183338,0.0018 7.19354,12.460723 z"
       id="path11"
       sodipodi:nodetypes="ccccccc" />
    <path
       style="fill:none;stroke:#000000;stroke-width:0.1;stroke-linecap:round;stroke-linejoin:round;stroke-dasharray:none"
       d="m 65.563241,44.108285 7.199204,0.0038 6.191987,10.723563 3.6023,-6.220168 3.590111,6.221854 -7.194534,12.460149 z"
       id="path12"
       sodipodi:nodetypes="ccccccc" />
    <path
       style="fill:none;stroke:#000000;stroke-width:0.1;stroke-linecap:round;stroke-linejoin:round;stroke-dasharray:none"
       d="m 61.001595,73.518344 -3.602891,6.232791 -12.382872,6.38e-4 3.585673,6.229768 -7.183338,-0.0018 -7.193539,-12.460723 z"
       id="path13"
       sodipodi:nodetypes="ccccccc" />
  </g>
</svg>
