<?xml version="1.0" encoding="UTF-8" standalone="no"?>
<!-- Created with Inkscape (http://www.inkscape.org/) -->

<svg
   width="80mm"
   height="80mm"
   viewBox="0 0 80 80"
   version="1.1"
   id="svg1"
   inkscape:version="1.3 (1:1.3+202307231459+0e150ed6c4)"
   sodipodi:docname="drawing_30.svg"
   xml:space="preserve"
   xmlns:inkscape="http://www.inkscape.org/namespaces/inkscape"
   xmlns:sodipodi="http://sodipodi.sourceforge.net/DTD/sodipodi-0.dtd"
   xmlns="http://www.w3.org/2000/svg"
   xmlns:svg="http://www.w3.org/2000/svg"><sodipodi:namedview
     id="namedview1"
     pagecolor="#ffffff"
     bordercolor="#000000"
     borderopacity="0.25"
     inkscape:showpageshadow="2"
     inkscape:pageopacity="0.0"
     inkscape:pagecheckerboard="0"
     inkscape:deskcolor="#d1d1d1"
     inkscape:document-units="mm"
     inkscape:zoom="2"
     inkscape:cx="106.75"
     inkscape:cy="139.5"
     inkscape:window-width="2560"
     inkscape:window-height="1376"
     inkscape:window-x="0"
     inkscape:window-y="0"
     inkscape:window-maximized="1"
     inkscape:current-layer="layer1" /><defs
     id="defs1" /><g
     inkscape:label="Layer 1"
     inkscape:groupmode="layer"
     id="layer1"
     transform="translate(-110.02945,-557.24224)"><g
       id="g276" /><g
       id="g278"
       transform="rotate(90,150.02319,417.32394)" /><g
       id="g280"
       transform="rotate(180,150.02718,417.32167)" /><g
       id="g282"
       transform="rotate(-90,150.03116,417.31939)" /><path
       id="path648"
       style="fill:none;stroke:#000000;stroke-width:0.0928586;stroke-linecap:round;stroke-linejoin:round"
       d="m 146.1095,611.62196 c -7.0938,-1.41105 -11.70058,-8.30559 -10.28954,-15.39939 1.18351,-5.94992 6.22466,-10.15022 12.00388,-10.51917 -2.03882,1.82397 -3.52339,4.30084 -4.09815,7.19037 -1.41105,7.0938 3.19574,13.98834 10.28954,15.39939 1.16102,0.23094 2.31669,0.30068 3.42651,0.22257 -2.98243,2.66151 -7.12224,3.94365 -11.33224,3.10623 z"
       sodipodi:nodetypes="sscsscs" /><rect
       style="fill:none;stroke:#000000;stroke-width:0.110876;stroke-linecap:round;stroke-linejoin:round;stroke-dasharray:none"
       id="rect648"
       width="1.2916083"
       height="19.532551"
       x="317.63214"
       y="-563.22308"
       rx="0.64580417"
       ry="0.64580417"
       transform="rotate(135)" /><rect
       style="fill:none;stroke:#000000;stroke-width:0.110876;stroke-linecap:round;stroke-linejoin:round;stroke-dasharray:none"
       id="rect651"
       width="1.2916083"
       height="19.532551"
       x="-529.16705"
       y="-303.10867"
       rx="0.64580417"
       ry="0.64580417"
       transform="rotate(-135)" /><rect
       style="fill:none;stroke:#000000;stroke-width:0.110876;stroke-linecap:round;stroke-linejoin:round;stroke-dasharray:none"
       id="rect653"
       width="1.2916083"
       height="19.532551"
       x="-149.31023"
       y="-583.60815"
       rx="0.64580417"
       ry="0.64580417"
       transform="scale(-1)" /><rect
       style="fill:none;stroke:#000000;stroke-width:0.110876;stroke-linecap:round;stroke-linejoin:round;stroke-dasharray:none"
       id="rect655"
       width="1.2916083"
       height="19.532551"
       x="-599.42322"
       y="163.83371"
       rx="0.64580417"
       ry="0.64580417"
       transform="rotate(-90)" /><rect
       style="fill:none;stroke:#000000;stroke-width:0.110876;stroke-linecap:round;stroke-linejoin:round;stroke-dasharray:none"
       id="rect664"
       width="1.2916083"
       height="19.532551"
       x="-610.73541"
       y="-76.624901"
       rx="0.64580417"
       ry="0.64580417"
       transform="rotate(-112.5)" /><rect
       style="fill:none;stroke:#000000;stroke-width:0.110876;stroke-linecap:round;stroke-linejoin:round;stroke-dasharray:none"
       id="rect666"
       width="1.2916083"
       height="19.532551"
       x="-367.13602"
       y="-481.13751"
       rx="0.64580417"
       ry="0.64580417"
       transform="rotate(-157.5)" /><rect
       style="fill:none;stroke:#000000;stroke-width:0.110876;stroke-linecap:round;stroke-linejoin:round;stroke-dasharray:none"
       id="rect668"
       width="1.2916083"
       height="19.532551"
       x="-496.95261"
       y="381.65952"
       rx="0.64580417"
       ry="0.64580417"
       transform="rotate(-67.5)" /><rect
       style="fill:none;stroke:#000000;stroke-width:0.110876;stroke-linecap:round;stroke-linejoin:round;stroke-dasharray:none"
       id="rect669"
       width="1.2916095"
       height="10.338338"
       x="-263.26938"
       y="-543.09991"
       rx="0.64580417"
       ry="0.64580417"
       transform="rotate(-168.75)" /><rect
       style="fill:none;stroke:#000000;stroke-width:0.110876;stroke-linecap:round;stroke-linejoin:round;stroke-dasharray:none"
       id="rect671"
       width="1.2916095"
       height="10.338338"
       x="-456.91867"
       y="-400.10245"
       rx="0.64580417"
       ry="0.64580417"
       transform="rotate(-146.25)" /><rect
       style="fill:none;stroke:#000000;stroke-width:0.110876;stroke-linecap:round;stroke-linejoin:round;stroke-dasharray:none"
       id="rect673"
       width="1.2916095"
       height="10.338338"
       x="-581.10461"
       y="-193.8837"
       rx="0.64580417"
       ry="0.64580417"
       transform="rotate(-123.75)" /><rect
       style="fill:none;stroke:#000000;stroke-width:0.110876;stroke-linecap:round;stroke-linejoin:round;stroke-dasharray:none"
       id="rect675"
       width="1.2916095"
       height="10.338338"
       x="-616.92096"
       y="44.161476"
       rx="0.64580417"
       ry="0.64580417"
       transform="rotate(-101.25)" /><rect
       style="fill:none;stroke:#000000;stroke-width:0.110876;stroke-linecap:round;stroke-linejoin:round;stroke-dasharray:none"
       id="rect677"
       width="1.2916095"
       height="10.338338"
       x="-558.91498"
       y="277.79285"
       rx="0.64580417"
       ry="0.64580417"
       transform="rotate(-78.750001)" /><rect
       style="fill:none;stroke:#000000;stroke-width:0.110876;stroke-linecap:round;stroke-linejoin:round;stroke-dasharray:none"
       id="rect679"
       width="1.2916095"
       height="10.338338"
       x="-415.91754"
       y="471.44217"
       rx="0.64580417"
       ry="0.64580417"
       transform="rotate(-56.25)" /><path
       sodipodi:type="star"
       style="fill:none;stroke:#000000;stroke-width:0.268289;stroke-linecap:round;stroke-linejoin:round;stroke-dasharray:none"
       id="path684"
       inkscape:flatsided="false"
       sodipodi:sides="5"
       sodipodi:cx="401.6582"
       sodipodi:cy="2124.9629"
       sodipodi:r1="14.215198"
       sodipodi:r2="5.1855822"
       sodipodi:arg1="1.0471976"
       sodipodi:arg2="1.6755161"
       inkscape:rounded="0"
       inkscape:randomized="0"
       d="m 408.7658,2137.2736 -7.64964,-7.1535 -8.96978,5.4067 4.43956,-9.4858 -7.91397,-6.86 10.39344,1.291 4.07869,-9.6464 1.98393,10.2837 10.43473,0.8981 -9.16729,5.0647 z"
       transform="matrix(0.4132697,0,0,0.4132697,-37.739378,-303.81885)"
       inkscape:transform-center-x="3.505378e-06"
       inkscape:transform-center-y="-2.1996597e-05" /><path
       sodipodi:type="star"
       style="fill:none;stroke:#000000;stroke-width:0.268289;stroke-linecap:round;stroke-linejoin:round;stroke-dasharray:none"
       id="path685"
       inkscape:flatsided="false"
       sodipodi:sides="5"
       sodipodi:cx="401.6582"
       sodipodi:cy="2124.9629"
       sodipodi:r1="14.215198"
       sodipodi:r2="5.1855822"
       sodipodi:arg1="1.0471976"
       sodipodi:arg2="1.6755161"
       inkscape:rounded="0"
       inkscape:randomized="0"
       d="m 408.7658,2137.2736 -7.64964,-7.1535 -8.96978,5.4067 4.43956,-9.4858 -7.91397,-6.86 10.39344,1.291 4.07869,-9.6464 1.98393,10.2837 10.43473,0.8981 -9.16729,5.0647 z"
       transform="matrix(0.4132697,0,0,0.4132697,-43.933713,-252.86156)"
       inkscape:transform-center-x="3.505378e-06"
       inkscape:transform-center-y="-2.1996597e-05" /><path
       sodipodi:type="star"
       style="fill:none;stroke:#000000;stroke-width:0.365965;stroke-linecap:round;stroke-linejoin:round;stroke-dasharray:none"
       id="path686"
       inkscape:flatsided="false"
       sodipodi:sides="5"
       sodipodi:cx="401.6582"
       sodipodi:cy="2124.9629"
       sodipodi:r1="14.215198"
       sodipodi:r2="5.1855822"
       sodipodi:arg1="1.0471976"
       sodipodi:arg2="1.6755161"
       inkscape:rounded="0"
       inkscape:randomized="0"
       d="m 408.7658,2137.2736 -7.64964,-7.1535 -8.96978,5.4067 4.43956,-9.4858 -7.91397,-6.86 10.39344,1.291 4.07869,-9.6464 1.98393,10.2837 10.43473,0.8981 -9.16729,5.0647 z"
       transform="matrix(0.3029678,0,0,0.3029678,4.3689072,-40.824265)"
       inkscape:transform-center-x="1.7330333e-06"
       inkscape:transform-center-y="-1.1507383e-05" /><path
       sodipodi:type="star"
       style="fill:none;stroke:#000000;stroke-width:0.365965;stroke-linecap:round;stroke-linejoin:round;stroke-dasharray:none"
       id="path687"
       inkscape:flatsided="false"
       sodipodi:sides="5"
       sodipodi:cx="401.6582"
       sodipodi:cy="2124.9629"
       sodipodi:r1="14.215198"
       sodipodi:r2="5.1855822"
       sodipodi:arg1="1.0471976"
       sodipodi:arg2="1.6755161"
       inkscape:rounded="0"
       inkscape:randomized="0"
       d="m 408.7658,2137.2736 -7.64964,-7.1535 -8.96978,5.4067 4.43956,-9.4858 -7.91397,-6.86 10.39344,1.291 4.07869,-9.6464 1.98393,10.2837 10.43473,0.8981 -9.16729,5.0647 z"
       transform="matrix(0.3029678,0,0,0.3029678,29.275735,-19.447478)"
       inkscape:transform-center-x="1.7330333e-06"
       inkscape:transform-center-y="-1.1507383e-05" /></g></svg>
