<?xml version="1.0" encoding="UTF-8" standalone="no"?>
<!-- Created with Inkscape (http://www.inkscape.org/) -->

<svg
   width="80mm"
   height="80mm"
   viewBox="0 0 80 80"
   version="1.1"
   id="svg1"
   inkscape:version="1.3 (1:1.3+202307231459+0e150ed6c4)"
   sodipodi:docname="drawing_34.svg"
   xmlns:inkscape="http://www.inkscape.org/namespaces/inkscape"
   xmlns:sodipodi="http://sodipodi.sourceforge.net/DTD/sodipodi-0.dtd"
   xmlns="http://www.w3.org/2000/svg"
   xmlns:svg="http://www.w3.org/2000/svg">
  <sodipodi:namedview
     id="namedview1"
     pagecolor="#ffffff"
     bordercolor="#000000"
     borderopacity="0.25"
     inkscape:showpageshadow="2"
     inkscape:pageopacity="0.0"
     inkscape:pagecheckerboard="0"
     inkscape:deskcolor="#d1d1d1"
     inkscape:document-units="mm"
     inkscape:zoom="2.8284271"
     inkscape:cx="68.942911"
     inkscape:cy="134.70384"
     inkscape:window-width="2560"
     inkscape:window-height="1376"
     inkscape:window-x="0"
     inkscape:window-y="27"
     inkscape:window-maximized="1"
     inkscape:current-layer="layer1" />
  <defs
     id="defs1" />
  <g
     inkscape:label="Layer 1"
     inkscape:groupmode="layer"
     id="layer1"
     transform="translate(-14.779481,-17.49243)">
    <g
       id="g276" />
    <g
       id="g278"
       transform="rotate(90,150.02319,417.32394)" />
    <g
       id="g280"
       transform="rotate(180,150.02718,417.32167)" />
    <g
       id="g282"
       transform="rotate(-90,150.03116,417.31939)" />
    <path
       d="m 69.029036,27.531993 -13.167697,0.0046 -3.823405,6.640732 -7.631108,6.33e-4 -3.301376,5.699952 3.819595,6.613134 3.272656,-5.667079 6.57764,2.82e-4 3.832206,-6.647176 6.584404,0.001 z"
       style="fill:none;stroke:#000000;stroke-width:0.1;stroke-linecap:round;stroke-linejoin:round"
       id="path5"
       sodipodi:nodetypes="ccccccccccc" />
    <path
       d="m 87.839007,54.827021 -6.587832,-11.40126 -7.662745,0.0092 -3.816103,-6.608415 -6.586992,-0.0091 -3.817343,6.614433 6.544161,6.63e-4 3.288577,5.696545 7.672725,-0.0048 3.291336,5.702762 z"
       style="fill:none;stroke:#000000;stroke-width:0.1;stroke-linecap:round;stroke-linejoin:round"
       id="path15"
       sodipodi:nodetypes="ccccccccccc" />
    <path
       d="m 73.595397,84.771576 6.579864,-11.40586 -3.83934,-6.631532 3.815006,-6.609049 -3.285616,-5.709052 -7.63694,0.0013 3.271507,5.667741 -3.289064,5.696264 3.84052,6.642375 -3.293068,5.701761 z"
       style="fill:none;stroke:#000000;stroke-width:0.1;stroke-linecap:round;stroke-linejoin:round"
       id="path16"
       sodipodi:nodetypes="ccccccccccc" />
    <path
       d="m 40.540078,87.421023 13.167697,-0.0046 3.823406,-6.640731 7.631107,-6.33e-4 3.301377,-5.699953 -3.819595,-6.613134 -3.272654,5.667077 -6.577642,-2.8e-4 -3.832206,6.647175 -6.584404,-10e-4 z"
       style="fill:none;stroke:#000000;stroke-width:0.1;stroke-linecap:round;stroke-linejoin:round"
       id="path17"
       sodipodi:nodetypes="ccccccccccc" />
    <path
       d="m 21.698654,60.183239 6.587832,11.40126 7.662745,-0.0092 3.816103,6.608418 6.586991,0.0091 3.817345,-6.614435 -6.54416,-6.61e-4 -3.288578,-5.696547 -7.672726,0.0048 -3.291336,-5.702762 z"
       style="fill:none;stroke:#000000;stroke-width:0.1;stroke-linecap:round;stroke-linejoin:round"
       id="path18"
       sodipodi:nodetypes="ccccccccccc" />
    <path
       d="m 35.960017,30.191307 -6.579865,11.405861 3.83934,6.631532 -3.815006,6.60905 3.285615,5.709052 7.636941,-0.0013 -3.271507,-5.66774 3.289066,-5.696265 -3.84052,-6.642375 3.293068,-5.701762 z"
       style="fill:none;stroke:#000000;stroke-width:0.1;stroke-linecap:round;stroke-linejoin:round"
       id="path19"
       sodipodi:nodetypes="ccccccccccc" />
  </g>
</svg>
