<?xml version="1.0" encoding="UTF-8" standalone="no"?>
<!-- Created with Inkscape (http://www.inkscape.org/) -->

<svg
   width="80mm"
   height="80mm"
   viewBox="0 0 80 80"
   version="1.1"
   id="svg1"
   inkscape:version="1.3 (1:1.3+202307231459+0e150ed6c4)"
   sodipodi:docname="drawing_08.svg"
   xmlns:inkscape="http://www.inkscape.org/namespaces/inkscape"
   xmlns:sodipodi="http://sodipodi.sourceforge.net/DTD/sodipodi-0.dtd"
   xmlns="http://www.w3.org/2000/svg"
   xmlns:svg="http://www.w3.org/2000/svg">
  <sodipodi:namedview
     id="namedview1"
     pagecolor="#ffffff"
     bordercolor="#000000"
     borderopacity="0.25"
     inkscape:showpageshadow="2"
     inkscape:pageopacity="0.0"
     inkscape:pagecheckerboard="0"
     inkscape:deskcolor="#d1d1d1"
     inkscape:document-units="mm"
     inkscape:zoom="2.8284271"
     inkscape:cx="73.008775"
     inkscape:cy="152.02796"
     inkscape:window-width="2560"
     inkscape:window-height="1376"
     inkscape:window-x="0"
     inkscape:window-y="0"
     inkscape:window-maximized="1"
     inkscape:current-layer="layer1" />
  <defs
     id="defs1" />
  <g
     inkscape:label="Layer 1"
     inkscape:groupmode="layer"
     id="layer1"
     transform="translate(-110.02945,-287.36751)">
    <path
       style="fill:none;stroke:#000000;stroke-width:0.0935475;stroke-linecap:round;stroke-linejoin:round;stroke-dasharray:none"
       d="m 143.55511,300.21454 c -10.67332,2.84392 -18.52566,12.57453 -18.52566,24.13916 0,11.57303 7.86375,21.30938 18.53295,24.15821 l 1.2881,-4.82816 c -8.53403,-2.28772 -14.82105,-10.0748 -14.82105,-19.33029 0,-9.25477 6.28604,-17.04135 14.82385,-19.3158 l 1.29338,4.82093 c -6.40132,1.71225 -11.11723,7.55289 -11.11723,14.49498 0,6.94446 4.71913,12.78671 11.12197,14.49031 l 1.3006,-4.82864 c -4.26884,-1.12785 -7.42257,-5.02652 -7.42257,-9.66178 0,-4.62696 3.14244,-8.51996 7.4101,-9.66235 l 1.29178,4.83242 c -2.13387,0.57393 -3.70188,2.51882 -3.70188,4.82993 0,2.76142 2.23858,5 5,5 2.76142,0 5,-2.23858 5,-5 0,-2.31041 -1.56706,-4.25482 -3.70258,-4.82344 l 1.29027,-4.83219 c 4.2695,1.13521 7.41231,5.0284 7.41231,9.65563 0,4.62111 -3.1345,8.51012 -7.40277,9.65737 l 1.28707,4.83479 c 6.40188,-1.71202 11.1157,-7.5516 11.1157,-14.49216 0,-6.9402 -4.71334,-12.77955 -11.11752,-14.48343 l 1.29641,-4.84586 c 8.53428,2.28695 14.82111,10.07393 14.82111,19.32929 0,9.2558 -6.28745,17.0431 -14.82194,19.32869 l 1.2977,4.83394 c 10.66741,-2.86183 18.52424,-12.5947 18.52424,-24.16263 0,-11.56495 -7.85277,-21.29578 -18.52268,-24.15195 l 1.29135,-4.81995 c 12.8068,3.41548 22.23133,15.09308 22.23133,28.9719 0,13.88475 -9.43258,25.5664 -22.23489,28.9914 l 1.30017,4.79607 c -2.87875,0.79862 -5.92368,1.21253 -9.06528,1.21253 -3.12212,0 -6.14877,-0.4088 -9.03833,-1.20533 l 1.27425,-4.81455 c -12.80517,-3.41599 -22.23592,-15.09672 -22.23592,-28.98012 0,-13.87646 9.42132,-25.55245 22.22818,-28.97059 z"
       id="path208"
       sodipodi:nodetypes="csccsccsccsccsssccsccsccsccsccsccsccscc" />
    <g
       id="g276" />
    <g
       id="g278"
       transform="rotate(90,150.02319,417.32394)" />
    <g
       id="g280"
       transform="rotate(180,150.02718,417.32167)" />
    <g
       id="g282"
       transform="rotate(-90,150.03116,417.31939)" />
  </g>
</svg>
