<?xml version="1.0" encoding="UTF-8" standalone="no"?>
<!-- Created with Inkscape (http://www.inkscape.org/) -->

<svg
   width="80mm"
   height="80mm"
   viewBox="0 0 80 80"
   version="1.1"
   id="svg1"
   inkscape:version="1.3 (1:1.3+202307231459+0e150ed6c4)"
   sodipodi:docname="drawing_29.svg"
   xml:space="preserve"
   xmlns:inkscape="http://www.inkscape.org/namespaces/inkscape"
   xmlns:sodipodi="http://sodipodi.sourceforge.net/DTD/sodipodi-0.dtd"
   xmlns="http://www.w3.org/2000/svg"
   xmlns:svg="http://www.w3.org/2000/svg"><sodipodi:namedview
     id="namedview1"
     pagecolor="#ffffff"
     bordercolor="#000000"
     borderopacity="0.25"
     inkscape:showpageshadow="2"
     inkscape:pageopacity="0.0"
     inkscape:pagecheckerboard="0"
     inkscape:deskcolor="#d1d1d1"
     inkscape:document-units="mm"
     inkscape:zoom="1.4142136"
     inkscape:cx="-1.767767"
     inkscape:cy="-74.246212"
     inkscape:window-width="2560"
     inkscape:window-height="1376"
     inkscape:window-x="0"
     inkscape:window-y="0"
     inkscape:window-maximized="1"
     inkscape:current-layer="layer1" /><defs
     id="defs1" /><g
     inkscape:label="Layer 1"
     inkscape:groupmode="layer"
     id="layer1"
     transform="translate(-14.779481,-557.24224)"><g
       id="g276" /><g
       id="g278"
       transform="rotate(90,150.02319,417.32394)" /><g
       id="g280"
       transform="rotate(180,150.02718,417.32167)" /><g
       id="g282"
       transform="rotate(-90,150.03116,417.31939)" /><path
       style="fill:none;stroke:#000000;stroke-width:0.0866077;stroke-linecap:round;stroke-linejoin:round;stroke-dasharray:none"
       d="m 89.814341,597.23618 -17.517413,30.35365 -35.045832,-0.0107 -17.506477,-30.35236 17.511096,-30.32584 8.767186,4.6e-4 4.374875,7.58344 -8.763013,0.003 -13.136324,22.72449 13.137103,22.78307 8.763691,0.006 -13.141224,-22.76621 8.761885,-15.16691 4.378174,7.5875 -4.376169,7.58652 8.766328,15.16271 8.751404,-15.16175 -4.379148,-7.59595 4.379297,-7.57896 8.762003,15.15885 -13.140099,22.76861 8.761694,-8.7e-4 13.130039,-22.75489 -13.125218,-22.74884 -8.777988,-0.002 4.382176,-7.59456 8.771731,0.005 z"
       id="path630"
       sodipodi:nodetypes="cccccccccccccccccccccccccccc" /></g></svg>
