<?xml version="1.0" encoding="UTF-8" standalone="no"?>
<!-- Created with Inkscape (http://www.inkscape.org/) -->

<svg
   width="80mm"
   height="80mm"
   viewBox="0 0 80 80"
   version="1.1"
   id="svg1"
   inkscape:version="1.3 (1:1.3+202307231459+0e150ed6c4)"
   sodipodi:docname="drawing_42.svg"
   xmlns:inkscape="http://www.inkscape.org/namespaces/inkscape"
   xmlns:sodipodi="http://sodipodi.sourceforge.net/DTD/sodipodi-0.dtd"
   xmlns="http://www.w3.org/2000/svg"
   xmlns:svg="http://www.w3.org/2000/svg">
  <sodipodi:namedview
     id="namedview1"
     pagecolor="#ffffff"
     bordercolor="#000000"
     borderopacity="0.25"
     inkscape:showpageshadow="true"
     inkscape:pageopacity="0.0"
     inkscape:pagecheckerboard="false"
     inkscape:deskcolor="#d1d1d1"
     inkscape:document-units="mm"
     inkscape:zoom="2.8284271"
     inkscape:cx="60.634406"
     inkscape:cy="113.84419"
     inkscape:window-width="2560"
     inkscape:window-height="1376"
     inkscape:window-x="0"
     inkscape:window-y="0"
     inkscape:window-maximized="1"
     inkscape:current-layer="layer1"
     showborder="true"
     labelstyle="default"
     inkscape:clip-to-page="false" />
  <defs
     id="defs1" />
  <g
     inkscape:label="Layer 1"
     inkscape:groupmode="layer"
     id="layer1"
     transform="translate(-14.779481,-17.49243)">
    <rect
       style="fill:none;stroke:#1a1a1a;stroke-width:0.0998752;stroke-linecap:round;stroke-linejoin:round;stroke-dasharray:none"
       id="rect1"
       width="79.900124"
       height="79.900124"
       x="14.829418"
       y="17.542368" />
    <g
       id="g276" />
    <g
       id="g278"
       transform="rotate(90,150.02319,417.32394)" />
    <g
       id="g280"
       transform="rotate(180,150.02718,417.32167)" />
    <g
       id="g282"
       transform="rotate(-90,150.03116,417.31939)" />
    <path
       id="path2"
       style="fill:none;stroke:#000000;stroke-width:0.1;stroke-linecap:round;stroke-linejoin:round"
       d="m 54.772412,72.230212 6.676976,-0.0019 3.3424,-5.785408 7.051033,12.210547 -3.342001,5.788267 -20.774167,1.24e-4 z"
       sodipodi:nodetypes="ccccccc" />
    <path
       id="path5"
       style="fill:none;stroke:#000000;stroke-width:0.1;stroke-linecap:round;stroke-linejoin:round"
       d="m 42.011825,64.863796 3.340134,5.781481 6.681511,0.0019 -7.049128,12.211647 -6.683787,-1.25e-4 L 27.91336,64.867802 Z"
       sodipodi:nodetypes="ccccccc" />
    <path
       id="path6"
       style="fill:none;stroke:#000000;stroke-width:0.1;stroke-linecap:round;stroke-linejoin:round"
       d="m 42.014733,50.118639 -3.336843,5.783382 3.33911,5.787308 -14.10016,0.0011 -3.341787,-5.788392 10.386978,-17.991018 z"
       sodipodi:nodetypes="ccccccc" />
    <path
       id="path7"
       style="fill:none;stroke:#000000;stroke-width:0.1;stroke-linecap:round;stroke-linejoin:round"
       d="m 54.77453,42.750854 -6.676978,0.0019 -3.3424,5.785406 -7.051032,-12.210547 3.342001,-5.788266 20.774171,-1.25e-4 z"
       sodipodi:nodetypes="ccccccc" />
    <path
       id="path8"
       style="fill:none;stroke:#000000;stroke-width:0.1;stroke-linecap:round;stroke-linejoin:round"
       d="m 67.543705,50.124798 -3.340134,-5.781481 -6.681511,-0.0019 7.049129,-12.211649 6.683786,1.25e-4 10.387189,17.990895 z"
       sodipodi:nodetypes="ccccccc" />
    <path
       id="path9"
       style="fill:none;stroke:#000000;stroke-width:0.1;stroke-linecap:round;stroke-linejoin:round"
       d="m 67.544498,64.859 3.336842,-5.783383 -3.339108,-5.787306 14.100159,-0.0011 3.341785,5.788391 L 74.5972,77.066625 Z"
       sodipodi:nodetypes="ccccccc" />
  </g>
</svg>
